<?xml version="1.0" encoding="utf-8"?>
<!-- Generator: Adobe Illustrator 22.1.0, SVG Export Plug-In . SVG Version: 6.00 Build 0)  -->
<svg version="1.1" id="Слой_1" xmlns="http://www.w3.org/2000/svg" xmlns:xlink="http://www.w3.org/1999/xlink" x="0px" y="0px"
	 viewBox="0 0 62 58.7" style="enable-background:new 0 0 62 58.7;" xml:space="preserve">
<style type="text/css">
	.st0{fill:#0D0E0F;}
</style>
<path class="st0" d="M62,34.2H12.5V6.8c0-1.3,0.4-2.4,1.2-3.2C15.3,2,18.2,2,18.2,2c1.7,0,3.1,0.5,4,1.4c0.8,0.8,1.1,1.8,1.2,2.5
	c-4.5,0.6-8.1,4.5-8.1,9.2v1h18.6v-1c0-4.9-3.7-8.8-8.5-9.3c-0.1-1-0.6-2.6-1.8-3.9c-1.3-1.3-3.1-2-5.4-2c-0.2,0-3.7,0-5.9,2.2
	c-1.2,1.2-1.8,2.7-1.8,4.6v27.3H0v2h5.2l5.8,22.5h40.1l5.5-22.5H62V34.2z M31.8,14.1H17.4c0.5-3.5,3.5-6.3,7.2-6.3
	S31.4,10.6,31.8,14.1z M49.5,56.7H12.6L7.3,36.2h47.3L49.5,56.7z"/>
</svg>
