<?xml version="1.0" encoding="utf-8"?>
<!-- Generator: Adobe Illustrator 22.0.0, SVG Export Plug-In . SVG Version: 6.00 Build 0)  -->
<svg version="1.1" id="Layer_1" xmlns="http://www.w3.org/2000/svg" xmlns:xlink="http://www.w3.org/1999/xlink" x="0px" y="0px"
	 viewBox="0 0 57 25" style="enable-background:new 0 0 57 25;" xml:space="preserve">
<style type="text/css">
	.st0{fill:#76BC21;}
	.st1{fill:#54565A;}
</style>
<g>
	<path class="st0" d="M38.9,7.3c0,0.9-0.5,1.8-1.2,2.2c-0.5,0.4-1.5,0.7-2.7,0.7c-1.1,0-2.1-0.3-2.7-0.7c-0.7-0.5-1.2-1.3-1.2-2.2V5
		c0-1,0.6-1.9,1.4-2.4C33.1,2.3,34,2,35,2c1,0,1.9,0.2,2.5,0.6c0.8,0.5,1.4,1.3,1.4,2.4V7.3z M38.5,0.4C37.7,0.2,36.4,0,35.1,0
		c-1.3,0-2.4,0.1-3.2,0.4c-1.9,0.4-3.2,2.1-3.2,4v3.5c0,2.1,1.6,3.9,3.7,4.1c0.8,0.2,1.7,0.3,2.8,0.3c1.1,0,2.1-0.1,2.8-0.3
		c2-0.3,3.6-2,3.6-4.1V4.4C41.5,2.5,40.2,0.9,38.5,0.4 M23.6,4.1V12h2.6V0.3C24.7,0.9,23.6,2.4,23.6,4.1 M54.2,7.3
		c0,0.9-0.5,1.8-1.2,2.2c-0.5,0.4-1.5,0.7-2.7,0.7c-1.1,0-2.1-0.3-2.7-0.7c-0.7-0.5-1.2-1.3-1.2-2.2V5c0-1,0.6-1.9,1.4-2.4
		C48.4,2.3,49.3,2,50.3,2c1,0,1.9,0.2,2.5,0.6c0.8,0.5,1.4,1.3,1.4,2.4V7.3z M53.8,0.4C52.9,0.2,51.7,0,50.3,0
		c-1.3,0-2.4,0.1-3.2,0.4c-1.9,0.4-3.2,2.1-3.2,4v3.5c0,2.1,1.6,3.9,3.7,4.1c0.8,0.2,1.7,0.3,2.8,0.3c1.1,0,2.1-0.1,2.8-0.3
		c2-0.3,3.6-2,3.6-4.1V4.4C56.8,2.5,55.5,0.9,53.8,0.4 M12.1,0.3L12.1,0.3c-1.5,0-2.8,0.6-3.7,1.6C7.9,2.5,6.7,4,6,4.9L0,12h2
		c0.9,0,1.7-0.4,2.3-1.1l0.1-0.2l1.5-1.8h3.7c1.1,0,2-0.7,2.4-1.6l0,0l0-0.1c0-0.1,0-0.1,0.1-0.2H7.5l3.1-3.7
		c0.1-0.1,0.2-0.2,0.3-0.4L11,2.9l0,0l0.1-0.1v0l0.1-0.1l0,0l0.1-0.1l0.1-0.1l0.1,0l0,0l0.1-0.1l0,0c0.2-0.1,0.4-0.2,0.6-0.2l0,0v0
		l0,0V12h2.6V0.3L12.1,0.3L12.1,0.3z M17.1,7.1h1.7c1.2,0,2.2-0.8,2.5-1.9h-1.7C18.4,5.2,17.4,6,17.1,7.1"/>
	<path class="st1" d="M53.2,16.3v0.6h1.4v3.5h0.7v-3.5h1.4v-0.6H53.2z M50.6,19.9c-0.4,0-0.8-0.1-1.1-0.4v-1.7
		c0.3-0.7,0.8-1.1,1.3-1.1c0.7,0,1.2,0.5,1.2,1.4C52.1,19.2,51.5,19.9,50.6,19.9 M51,16.2c-0.6,0-1.2,0.3-1.4,0.8v-0.7h-0.7v5.8h0.7
		v-2c0.3,0.3,0.7,0.4,1.2,0.4c1.1,0,2-1,2-2.3C52.8,17,52,16.2,51,16.2 M40.9,19.9v-3.1c0.9,0.1,1.6,0.6,1.6,1.6
		C42.4,19.4,41.8,19.9,40.9,19.9 M40.2,19.9c-0.9-0.1-1.5-0.7-1.5-1.6c0-0.9,0.6-1.4,1.5-1.5V19.9z M40.9,16.2v-1.5h-0.7v1.5
		c-1.3,0.1-2.2,0.9-2.2,2.1c0,1.3,0.9,2,2.2,2.1v1.6c0,0,0.7,0,0.7,0v-1.6c1.3-0.1,2.2-0.8,2.2-2.1C43.1,17.1,42.2,16.3,40.9,16.2
		 M46,19.9c-0.7,0-1.4-0.6-1.4-1.6c0-1,0.6-1.5,1.3-1.5c0.7,0,1.4,0.6,1.4,1.6C47.2,19.5,46.6,19.9,46,19.9 M45.9,16.2
		c-1.1,0-2,0.8-2,2.2c0,1.4,0.9,2.2,2,2.2c1.1,0,2-0.8,2-2.2C47.9,17,47,16.2,45.9,16.2 M27,19.9c-0.1,0-0.2-0.1-0.4-0.2
		c-0.3-0.3-0.8-0.9-1.2-1.5c0.7-0.5,1.5-1.2,1.5-1.6c0-0.1-0.1-0.3-0.5-0.4c-0.5,0.8-1.4,1.6-2.2,2v-2h-0.7v4.1h0.7v-1.5
		c0.2-0.1,0.4-0.2,0.6-0.4c0.4,0.7,0.9,1.3,1.3,1.7c0.2,0.2,0.4,0.3,0.6,0.3c0.3,0,0.5-0.2,0.5-0.3c0-0.1,0-0.2,0-0.2H27z
		 M29.7,19.9c-0.7,0-1.4-0.6-1.4-1.6c0-1,0.6-1.5,1.3-1.5c0.7,0,1.4,0.6,1.4,1.6C31,19.5,30.4,19.9,29.7,19.9 M29.7,16.2
		c-1.1,0-2,0.8-2,2.2c0,1.4,0.9,2.2,2,2.2c1.1,0,2-0.8,2-2.2C31.7,17,30.8,16.2,29.7,16.2 M36.1,16.3l-1.3,2.2l-1.3-2.2h-0.7
		l-0.5,4.1H33l0.4-3.2l1.1,1.9h0.6l1.1-1.9l0.4,3.2h0.7l-0.5-4.1H36.1z"/>
</g>
</svg>
