<?xml version="1.0" encoding="utf-8"?>
<!-- Generator: Adobe Illustrator 22.0.0, SVG Export Plug-In . SVG Version: 6.00 Build 0)  -->
<svg version="1.1" id="Layer_1" xmlns="http://www.w3.org/2000/svg" xmlns:xlink="http://www.w3.org/1999/xlink" x="0px" y="0px"
	 viewBox="0 0 57 25" style="enable-background:new 0 0 57 25;" xml:space="preserve">
<style type="text/css">
	.st0{fill:#76BC21;}
	.st1{fill:#54565A;}
</style>
<g>
	<path class="st0" d="M38.9,7.3c0,0.9-0.5,1.8-1.2,2.2c-0.5,0.4-1.5,0.7-2.7,0.7c-1.1,0-2.1-0.3-2.7-0.7c-0.7-0.5-1.2-1.3-1.2-2.2V5
		c0-1,0.6-1.9,1.4-2.4C33.1,2.3,34,2,35,2c1,0,1.9,0.2,2.5,0.6c0.8,0.5,1.4,1.3,1.4,2.4V7.3z M38.5,0.4C37.7,0.2,36.4,0,35.1,0
		c-1.3,0-2.4,0.1-3.2,0.4c-1.9,0.4-3.2,2.1-3.2,4v3.5c0,2.1,1.6,3.9,3.7,4.1c0.8,0.2,1.7,0.3,2.8,0.3c1.1,0,2.1-0.1,2.8-0.3
		c2-0.3,3.6-2,3.6-4.1V4.4C41.5,2.5,40.2,0.9,38.5,0.4 M23.6,4.1V12h2.6V0.3C24.7,0.9,23.6,2.4,23.6,4.1 M54.2,7.3
		c0,0.9-0.5,1.8-1.2,2.2c-0.5,0.4-1.5,0.7-2.7,0.7c-1.1,0-2.1-0.3-2.7-0.7c-0.7-0.5-1.2-1.3-1.2-2.2V5c0-1,0.6-1.9,1.4-2.4
		C48.4,2.3,49.3,2,50.3,2c1,0,1.9,0.2,2.5,0.6c0.8,0.5,1.4,1.3,1.4,2.4V7.3z M53.8,0.4C52.9,0.2,51.7,0,50.3,0
		c-1.3,0-2.4,0.1-3.2,0.4c-1.9,0.4-3.2,2.1-3.2,4v3.5c0,2.1,1.6,3.9,3.7,4.1c0.8,0.2,1.7,0.3,2.8,0.3c1.1,0,2.1-0.1,2.8-0.3
		c2-0.3,3.6-2,3.6-4.1V4.4C56.8,2.5,55.5,0.9,53.8,0.4 M12.1,0.3L12.1,0.3c-1.5,0-2.8,0.6-3.7,1.6C7.9,2.5,6.7,4,6,4.9L0,12h2
		c0.9,0,1.7-0.4,2.3-1.1l0.1-0.2l1.5-1.8h3.7c1.1,0,2-0.7,2.4-1.6l0,0l0-0.1c0-0.1,0-0.1,0.1-0.2H7.5l3.1-3.7
		c0.1-0.1,0.2-0.2,0.3-0.4L11,2.9l0,0l0.1-0.1v0l0.1-0.1l0,0l0.1-0.1l0.1-0.1l0.1-0.1l0,0l0.1-0.1l0,0c0.2-0.1,0.4-0.2,0.6-0.2l0,0
		v0l0,0V12h2.6V0.3L12.1,0.3L12.1,0.3z M17.1,7.1h1.7c1.2,0,2.2-0.8,2.5-1.9h-1.7C18.4,5.2,17.4,6,17.1,7.1"/>
	<path class="st1" d="M51.6,16.3v0.8h2.1v5.2h1l0-5.2h2.1v-0.8L51.6,16.3z M40.2,16.2c-1.1,0-1.9,0.5-2.2,1.2c0,0.1-0.1,0.2-0.1,0.2
		c0,0.1,0,0.2,0.2,0.3c0.2,0.1,0.4,0.2,0.7,0.2c0.2-0.6,0.7-1,1.5-1c1,0,1.7,0.7,1.8,1.9h-2.6c0,0.2-0.1,0.4-0.1,0.5
		c0,0.2,0.1,0.3,0.2,0.3H42c-0.3,1.2-1.3,1.9-2.3,1.9c-0.5,0-1-0.1-1.5-0.3c-0.1,0.1-0.1,0.3-0.1,0.4c0,0.3,0.7,0.7,1.8,0.7
		c1.6,0,3.2-1.2,3.2-3.3C43.1,17.3,41.9,16.2,40.2,16.2 M45.2,20.3c-0.1,1-0.4,1.2-0.8,1.2c-0.2,0-0.4,0-0.6-0.1
		c-0.1,0.1-0.1,0.3-0.1,0.4c0,0.2,0.5,0.5,1,0.5c0.9,0,1.4-0.5,1.5-1.9c0.1-1.1,0.2-2.4,0.2-3.4h2.5l0,5.2h1v-6h-4.4
		C45.4,17.8,45.3,19.2,45.2,20.3 M26.1,21.6c-0.6,0-1.1-0.2-1.5-0.6v-2.4c0.4-1.1,1.2-1.6,1.9-1.6c1.1,0,1.8,0.8,1.8,2.1
		C28.2,20.5,27.3,21.6,26.1,21.6 M26.7,16.2c-0.9,0-1.7,0.5-2.1,1.2v-1.1h-1v8.4h1v-2.8c0.4,0.4,1,0.6,1.7,0.6c1.6,0,3-1.4,3-3.4
		C29.2,17.3,28.1,16.2,26.7,16.2 M35.1,16.4L32,20.8v-4.5h-1v5.8c0.2,0.2,0.5,0.3,0.7,0.3c0.2,0,0.2,0,0.3-0.2l3.1-4.4v4.5h1v-5.8
		c-0.2-0.2-0.5-0.3-0.7-0.3C35.3,16.3,35.2,16.3,35.1,16.4"/>
</g>
</svg>
