<?xml version="1.0" encoding="utf-8"?>
<!-- Generator: Adobe Illustrator 22.0.0, SVG Export Plug-In . SVG Version: 6.00 Build 0)  -->
<svg version="1.1" id="Layer_1" xmlns="http://www.w3.org/2000/svg" xmlns:xlink="http://www.w3.org/1999/xlink" x="0px" y="0px"
	 viewBox="0 0 57 25" style="enable-background:new 0 0 57 25;" xml:space="preserve">
<style type="text/css">
	.st0{fill:#54565A;}
	.st1{fill:#76BC21;}
</style>
<g>
	<path class="st0" d="M27.8,20.4c-0.8,0-1.5-0.6-1.5-1.8c0-1.2,0.7-1.7,1.5-1.7c0.8,0,1.5,0.6,1.5,1.8
		C29.3,19.8,28.6,20.4,27.8,20.4 M27.8,16.2c-1.2,0-2.3,0.9-2.3,2.4c0,1.5,1,2.4,2.3,2.4c1.2,0,2.3-0.9,2.3-2.4
		C30,17.1,29,16.2,27.8,16.2 M31.2,20.9H32v-4h2.3v4H35v-4.6h-3.8V20.9z M20.7,19.4c-0.1,0.8-0.3,1-0.6,1c-0.2,0-0.3,0-0.5-0.1
		c-0.1,0.1-0.1,0.2-0.1,0.3c0,0.2,0.4,0.4,0.8,0.4c0.7,0,1.1-0.4,1.2-1.5c0.1-0.9,0.2-1.9,0.2-2.6h1.9l0,4h0.8v-4.6h-3.4
		C20.9,17.4,20.9,18.6,20.7,19.4 M18.5,18.3H16c0.1-0.9,0.7-1.4,1.5-1.4c0.7,0,1.1,0.4,1.1,1.1C18.5,18,18.5,18.2,18.5,18.3
		 M17.4,16.2c-1.2,0-2.3,0.9-2.3,2.4c0,1.4,1,2.4,2.3,2.4c0.8,0,1.4-0.3,1.4-0.6c0-0.1,0-0.3-0.1-0.3c-0.4,0.2-0.7,0.3-1.2,0.3
		c-0.9,0-1.5-0.5-1.6-1.5h2.6c0.3,0,0.5-0.1,0.6-0.4c0.1-0.2,0.1-0.4,0.1-0.7C19.3,16.9,18.5,16.2,17.4,16.2 M52.8,16.3v0.6h1.6v4
		h0.8v-4h1.6v-0.6H52.8z M45.9,18.3h-2.5c0.1-0.9,0.7-1.4,1.5-1.4c0.7,0,1.1,0.4,1.1,1.1C46,18,45.9,18.2,45.9,18.3 M44.9,16.2
		c-1.2,0-2.3,0.9-2.3,2.4c0,1.4,1,2.4,2.3,2.4c0.8,0,1.4-0.3,1.4-0.6c0-0.1,0-0.3-0.1-0.3c-0.4,0.2-0.7,0.3-1.2,0.3
		c-0.9,0-1.5-0.5-1.6-1.5H46c0.3,0,0.5-0.1,0.6-0.4c0.1-0.2,0.1-0.4,0.1-0.7C46.7,16.9,45.9,16.2,44.9,16.2 M40.3,16.3l-1.4,2.5
		l-1.4-2.5h-0.8l-0.6,4.6h0.8l0.5-3.6l1.2,2.1h0.7l1.2-2.1l0.5,3.6h0.8L41,16.3H40.3z M50.9,18.2h-2.3v-1.9h-0.8v4.6h0.8v-2.1h2.3
		v2.1h0.8v-4.6h-0.8V18.2z M8.5,18.3H5.9c0.1-0.9,0.7-1.4,1.5-1.4c0.7,0,1.1,0.4,1.1,1.1C8.5,18,8.5,18.2,8.5,18.3 M7.4,16.2
		c-1.2,0-2.3,0.9-2.3,2.4c0,1.4,1,2.4,2.3,2.4c0.8,0,1.4-0.3,1.4-0.6c0-0.1,0-0.3-0.1-0.3c-0.4,0.2-0.7,0.3-1.2,0.3
		c-0.9,0-1.5-0.5-1.6-1.5h2.6c0.3,0,0.5-0.1,0.6-0.4c0.1-0.2,0.1-0.4,0.1-0.7C9.3,16.9,8.5,16.2,7.4,16.2 M3.2,20.3h-2
		c0.3-1.1,0.5-2.4,0.6-3.4h1.4V20.3z M4,16.3H1.1c-0.1,1.4-0.3,2.8-0.7,4H0v1.7h0.8v-1h3v1h0.8v-1.7H4V16.3z M12.4,20.3h-0.6
		c-0.4,0-0.5-0.1-0.5-0.7v-0.7h1c0.7,0,1.1,0.2,1.1,0.7C13.4,20,13.1,20.3,12.4,20.3 M11.2,16.9h1c0.7,0,0.9,0.3,0.9,0.7
		c0,0.4-0.3,0.7-0.9,0.7h-1V16.9z M13.3,18.5c0.4-0.2,0.6-0.5,0.6-1c0-0.7-0.5-1.3-1.6-1.3h-1.9v3.4c0,0.9,0.4,1.3,1.1,1.3h0.8
		c1.1,0,1.7-0.5,1.7-1.3C14.1,19,13.8,18.7,13.3,18.5"/>
	<path class="st1" d="M38.9,7.3c0,0.9-0.5,1.8-1.2,2.2c-0.5,0.4-1.5,0.7-2.7,0.7c-1.1,0-2.1-0.3-2.7-0.7c-0.7-0.5-1.2-1.3-1.2-2.2V5
		c0-1,0.6-1.9,1.4-2.4C33.1,2.3,34,2,35,2c1,0,1.9,0.2,2.5,0.6c0.8,0.5,1.4,1.3,1.4,2.4V7.3z M38.5,0.4C37.7,0.2,36.4,0,35.1,0
		c-1.3,0-2.4,0.1-3.2,0.4c-1.9,0.4-3.2,2.1-3.2,4v3.5c0,2.1,1.6,3.9,3.7,4.1c0.8,0.2,1.7,0.3,2.8,0.3c1.1,0,2.1-0.1,2.8-0.3
		c2-0.3,3.6-2,3.6-4.1V4.4C41.5,2.5,40.2,0.9,38.5,0.4 M23.6,4.1V12h2.6V0.3C24.7,0.9,23.6,2.4,23.6,4.1 M54.2,7.3
		c0,0.9-0.5,1.8-1.2,2.2c-0.5,0.4-1.5,0.7-2.7,0.7c-1.1,0-2.1-0.3-2.7-0.7c-0.7-0.5-1.2-1.3-1.2-2.2V5c0-1,0.6-1.9,1.4-2.4
		C48.4,2.3,49.3,2,50.3,2c1,0,1.9,0.2,2.5,0.6c0.8,0.5,1.4,1.3,1.4,2.4V7.3z M53.8,0.4C52.9,0.2,51.7,0,50.3,0
		c-1.3,0-2.4,0.1-3.2,0.4c-1.9,0.4-3.2,2.1-3.2,4v3.5c0,2.1,1.6,3.9,3.7,4.1c0.8,0.2,1.7,0.3,2.8,0.3c1.1,0,2.1-0.1,2.8-0.3
		c2-0.3,3.6-2,3.6-4.1V4.4C56.8,2.5,55.5,0.9,53.8,0.4 M12.1,0.3L12.1,0.3c-1.5,0-2.8,0.6-3.7,1.6C7.9,2.5,6.7,4,6,4.9L0,12h2
		c0.9,0,1.7-0.4,2.3-1.1l0.1-0.2l1.5-1.8h3.7c1.1,0,2-0.7,2.4-1.6l0,0l0-0.1c0-0.1,0-0.1,0.1-0.2H7.5l3.1-3.7
		c0.1-0.1,0.2-0.2,0.3-0.4L11,2.9l0,0l0.1-0.1v0l0.1-0.1l0,0l0.1-0.1l0.1-0.1l0.1,0l0,0l0.1-0.1l0,0c0.2-0.1,0.4-0.2,0.6-0.2l0,0v0
		l0,0V12h2.6V0.3L12.1,0.3L12.1,0.3z M17.1,7.1h1.7c1.2,0,2.2-0.8,2.5-1.9h-1.7C18.4,5.2,17.4,6,17.1,7.1"/>
</g>
</svg>
