<?xml version="1.0" encoding="utf-8"?>
<!-- Generator: Adobe Illustrator 22.0.0, SVG Export Plug-In . SVG Version: 6.00 Build 0)  -->
<svg version="1.1" id="Layer_1" xmlns="http://www.w3.org/2000/svg" xmlns:xlink="http://www.w3.org/1999/xlink" x="0px" y="0px"
	 viewBox="0 0 138 54" style="enable-background:new 0 0 138 54;" xml:space="preserve">
<style type="text/css">
	.st0{fill:#fff;}
	.st1{fill:#76BC21;}
</style>
<g>
	<path class="st0" d="M32.4,45.3c0.9-0.4,1.5-1.2,1.5-2.3c0-1.7-1.3-3.1-3.8-3.1h-4.6v8.2c0,2.3,1,3.1,2.7,3.1h2.1
		c2.7,0,4.2-1.3,4.2-3.2C34.4,46.5,33.5,45.7,32.4,45.3z M27.3,41.5h2.5c1.6,0,2.2,0.6,2.2,1.6c0,0.9-0.6,1.6-2.2,1.6h-2.5V41.5z
		 M30,49.6h-1.6c-0.9,0-1.2-0.3-1.2-1.8v-1.6h2.5c1.8,0,2.8,0.5,2.8,1.7C32.5,49,31.7,49.6,30,49.6z M9.6,39.9h-7
		C2.5,43.3,2,46.6,1,49.7H0v4h1.8v-2.5h7.3v2.5h1.8v-4H9.6V39.9z M7.7,49.7H2.9c0.8-2.7,1.2-5.7,1.4-8.2h3.5V49.7z M18,39.7
		c-3,0-5.5,2.2-5.5,5.9c0,3.5,2.4,5.9,5.6,5.9c2,0,3.4-0.8,3.4-1.4c0-0.3-0.1-0.6-0.3-0.8c-0.9,0.5-1.8,0.7-2.8,0.7
		c-2.1,0-3.8-1.2-4-3.6h6.3c0.8,0,1.2-0.2,1.5-0.9c0.2-0.4,0.3-1,0.3-1.6C22.5,41.4,20.7,39.7,18,39.7z M20.5,44.7h-6.2
		c0.2-2.2,1.7-3.5,3.6-3.5c1.7,0,2.8,1,2.8,2.6C20.7,44.2,20.7,44.5,20.5,44.7z M123.8,44.6h-5.6v-4.7h-1.8v11.3h1.8v-5.1h5.6v5.1
		h1.8V39.9h-1.8V44.6z M98,39.9l-3.4,6l-3.4-6h-1.8l-1.4,11.3h1.8l1.1-8.8l2.9,5.2h1.7l2.9-5.2l1.1,8.8h1.8l-1.4-11.3H98z
		 M109.1,39.7c-3,0-5.5,2.2-5.5,5.9c0,3.5,2.4,5.9,5.6,5.9c2,0,3.4-0.8,3.4-1.4c0-0.3-0.1-0.6-0.3-0.8c-0.9,0.5-1.8,0.7-2.8,0.7
		c-2.1,0-3.8-1.2-4-3.6h6.3c0.8,0,1.2-0.2,1.5-0.9c0.2-0.4,0.3-1,0.3-1.6C113.6,41.4,111.8,39.7,109.1,39.7z M111.6,44.7h-6.2
		c0.2-2.2,1.7-3.5,3.6-3.5c1.7,0,2.8,1,2.8,2.6C111.8,44.2,111.7,44.5,111.6,44.7z M128.4,39.9v1.6h3.9v9.7h1.8v-9.7h3.9v-1.6H128.4
		z M42.4,39.7c-3,0-5.5,2.2-5.5,5.9c0,3.5,2.4,5.9,5.6,5.9c2,0,3.4-0.8,3.4-1.4c0-0.3-0.1-0.6-0.3-0.8c-0.9,0.5-1.8,0.7-2.8,0.7
		c-2.1,0-3.8-1.2-4-3.6h6.3c0.8,0,1.2-0.2,1.5-0.9c0.2-0.4,0.3-1,0.3-1.6C46.9,41.4,45.1,39.7,42.4,39.7z M44.9,44.7h-6.2
		c0.2-2.2,1.7-3.5,3.6-3.5c1.7,0,2.8,1,2.8,2.6C45.1,44.2,45,44.5,44.9,44.7z M50.4,47.6c-0.3,1.9-0.8,2.3-1.5,2.3
		c-0.4,0-0.8-0.1-1.2-0.3c-0.1,0.2-0.3,0.6-0.3,0.8c0,0.4,1,0.9,1.9,0.9c1.6,0,2.6-1,2.9-3.6c0.3-2.1,0.4-4.6,0.5-6.4h4.7l0,9.7h1.8
		V39.9h-8.3C50.9,42.7,50.7,45.5,50.4,47.6z M75.9,51.2h1.8v-9.7h5.5v9.7h1.8V39.9h-9.2V51.2z M67.6,39.7c-3,0-5.5,2.2-5.5,5.9
		c0,3.7,2.5,5.9,5.5,5.9c3,0,5.5-2.2,5.5-5.9C73.1,41.8,70.5,39.7,67.6,39.7z M67.7,49.9c-1.9,0-3.7-1.5-3.7-4.4
		c0-2.9,1.7-4.2,3.5-4.2c1.9,0,3.7,1.5,3.7,4.4C71.2,48.6,69.5,49.9,67.7,49.9z"/>
	<path class="st1" d="M41.5,17.5h4.2c2.9,0,5.3-1.9,6-4.6h-4.2C44.7,12.9,42.3,14.8,41.5,17.5z M29.5,0.9L29.5,0.9
		c-3.6,0-6.8,1.6-9,4c-1.4,1.5-4.3,5.2-6,7.3L0,29.5h4.8c2.1,0,4.1-0.9,5.5-2.6l0.3-0.4l3.7-4.5h9.1c2.7,0,4.9-1.6,5.8-4l0,0
		l0.1-0.2c0-0.1,0.1-0.3,0.1-0.4H18.2l7.6-9c0.2-0.3,0.5-0.6,0.7-0.9l0.2-0.2l0,0l0.2-0.2v0l0.2-0.2l0,0l0.1-0.2l0.2-0.2l0.1-0.1
		l0.1-0.1l0.2-0.1l0,0c0.4-0.3,1-0.4,1.5-0.4l0.1,0v0l0,0v23.8h6.3V0.9L29.5,0.9L29.5,0.9z M130.8,1.3c-2-0.6-5-1-8.4-1
		c-3.1,0-5.9,0.3-7.8,0.9c-4.5,1-7.9,5-7.9,9.8v8.5c0,5.2,3.9,9.4,9,10c1.9,0.4,4.2,0.6,6.8,0.6c2.6,0,5-0.2,6.9-0.7
		c4.9-0.6,8.7-4.8,8.7-9.9V11C138,6.4,135,2.5,130.8,1.3z M131.8,18.1c0,2.3-1.2,4.3-2.9,5.5c-1.3,1-3.7,1.7-6.5,1.7
		c-2.8,0-5.2-0.7-6.5-1.7c-1.8-1.2-2.9-3.2-2.9-5.5v-5.7c0-2.5,1.4-4.6,3.4-5.8c1.4-0.8,3.5-1.3,6-1.3c2.5,0,4.6,0.5,6,1.3
		c2,1.1,3.4,3.3,3.4,5.8V18.1z M57.5,10.3v19.1h6.3V1C60.1,2.5,57.5,6.1,57.5,10.3z M93.6,1.3c-2-0.6-5-1-8.4-1
		c-3.1,0-5.9,0.3-7.8,0.9c-4.5,1-7.9,5-7.9,9.8v8.5c0,5.2,3.9,9.4,9,10c1.9,0.4,4.2,0.6,6.8,0.6c2.6,0,5-0.2,6.9-0.7
		c4.9-0.6,8.7-4.8,8.7-9.9V11C100.9,6.4,97.8,2.5,93.6,1.3z M94.6,18.1c0,2.3-1.2,4.3-2.9,5.5c-1.3,1-3.7,1.7-6.5,1.7
		c-2.8,0-5.2-0.7-6.5-1.7c-1.8-1.2-2.9-3.2-2.9-5.5v-5.7c0-2.5,1.4-4.6,3.4-5.8c1.4-0.8,3.5-1.3,6-1.3c2.5,0,4.6,0.5,6,1.3
		c2,1.1,3.4,3.3,3.4,5.8V18.1z"/>
</g>
</svg>
