<svg width="294" height="106" viewBox="0 0 294 106" fill="none" xmlns="http://www.w3.org/2000/svg">
<path d="M60.4328 69.6172H74.6359V80.2344H60.4328V104H47.3547V80.2344H0.737488V72.5703L46.5812 1.625H60.4328V69.6172ZM15.5031 69.6172H47.3547V19.4141L45.8078 22.2266L15.5031 69.6172ZM179.373 60.3359C179.373 75.5703 176.772 86.8906 171.569 94.2969C166.366 101.703 158.233 105.406 147.17 105.406C136.248 105.406 128.162 101.797 122.912 94.5781C117.662 87.3125 114.944 76.4844 114.756 62.0938V44.7266C114.756 29.6797 117.358 18.5 122.561 11.1875C127.764 3.875 135.92 0.21875 147.03 0.21875C158.045 0.21875 166.155 3.75781 171.358 10.8359C176.561 17.8672 179.233 28.7422 179.373 43.4609V60.3359ZM166.366 42.5469C166.366 31.5312 164.819 23.5156 161.725 18.5C158.631 13.4375 153.733 10.9062 147.03 10.9062C140.373 10.9062 135.522 13.4141 132.475 18.4297C129.428 23.4453 127.858 31.1562 127.764 41.5625V62.375C127.764 73.4375 129.358 81.6172 132.545 86.9141C135.78 92.1641 140.655 94.7891 147.17 94.7891C153.592 94.7891 158.35 92.3047 161.444 87.3359C164.584 82.3672 166.225 74.5391 166.366 63.8516V42.5469ZM279.752 69.6172H293.955V80.2344H279.752V104H266.673V80.2344H220.056V72.5703L265.9 1.625H279.752V69.6172ZM234.822 69.6172H266.673V19.4141L265.127 22.2266L234.822 69.6172Z" fill="url(#paint0_linear)"/>
<defs>
<linearGradient id="paint0_linear" x1="-3" y1="54.5" x2="326" y2="54.5" gradientUnits="userSpaceOnUse">
<stop stop-color="#FFB547"/>
<stop offset="1" stop-color="red"/>
</linearGradient>
</defs>
</svg>
