<?xml version="1.0" encoding="utf-8"?>
<!-- Generator: Adobe Illustrator 22.1.0, SVG Export Plug-In . SVG Version: 6.00 Build 0)  -->
<svg version="1.1" id="Слой_1" xmlns="http://www.w3.org/2000/svg" xmlns:xlink="http://www.w3.org/1999/xlink" x="0px" y="0px"
	 viewBox="0 0 57 57" style="enable-background:new 0 0 57 57;" xml:space="preserve">
<style type="text/css">
	.st0{fill:#0D0E0F;}
</style>
<g transform="translate(-1 -1)">
	<g>
		<g>
			<path class="st0" d="M56.5,45L45,37.3c-1.5-1-3.4-0.6-4.5,0.7l-3.4,4.3c-0.4,0.6-1.2,0.7-1.8,0.4l-0.6-0.4
				c-2.1-1.2-4.8-2.6-10.1-7.9s-6.8-8-7.9-10.1l-0.4-0.6c-0.4-0.6-0.2-1.4,0.4-1.8l4.3-3.4c1.4-1.1,1.7-3,0.7-4.5L14,2.5
				c-1-1.5-3-1.9-4.5-1L4.7,4.4c-1.5,0.9-2.6,2.3-3.1,4c-1.7,6.3-0.4,17.3,15.7,33.4C30,54.6,39.6,58,46.1,58c1.5,0,3-0.2,4.5-0.6
				c1.7-0.5,3.1-1.6,4-3.1l2.9-4.8C58.4,48,58,46,56.5,45z M55.9,48.5L53,53.3c-0.6,1.1-1.7,1.9-2.9,2.2
				c-5.8,1.6-16.1,0.3-31.5-15.2S1.8,14.8,3.4,8.9C3.8,7.7,4.6,6.6,5.7,6l4.8-2.9c0.7-0.4,1.5-0.2,2,0.4l4.2,6.3l3.5,5.3
				c0.4,0.6,0.3,1.5-0.3,2l-4.3,3.4c-1.3,1-1.7,2.8-0.9,4.3l0.3,0.6c1.2,2.2,2.7,5,8.2,10.5c5.5,5.5,8.3,7,10.5,8.2l0.6,0.3
				c1.4,0.8,3.3,0.4,4.3-0.9l3.4-4.3c0.5-0.6,1.3-0.7,2-0.3l11.5,7.7C56.1,47,56.3,47.9,55.9,48.5z"/>
			<path class="st0" d="M33.3,10.5c8.9,0,16.1,7.2,16.1,16.1c0,0.5,0.4,0.9,0.9,0.9s0.9-0.4,0.9-0.9c0-10-8.1-18-18-18
				c-0.5,0-0.9,0.4-0.9,0.9S32.8,10.5,33.3,10.5z"/>
			<path class="st0" d="M33.3,16.2c5.8,0,10.4,4.7,10.4,10.4c0,0.5,0.4,0.9,0.9,0.9c0.5,0,0.9-0.4,0.9-0.9c0-6.8-5.5-12.3-12.3-12.3
				c-0.5,0-0.9,0.4-0.9,0.9C32.4,15.8,32.8,16.2,33.3,16.2z"/>
			<path class="st0" d="M33.3,21.9c2.6,0,4.7,2.1,4.7,4.7c0,0.5,0.4,0.9,0.9,0.9s0.9-0.4,0.9-0.9c0-3.7-3-6.6-6.6-6.6
				c-0.5,0-0.9,0.4-0.9,0.9S32.8,21.9,33.3,21.9z"/>
		</g>
	</g>
</g>
</svg>
