<?xml version="1.0" encoding="utf-8"?>
<!-- Generator: Adobe Illustrator 22.1.0, SVG Export Plug-In . SVG Version: 6.00 Build 0)  -->
<svg version="1.1" id="Слой_1" xmlns="http://www.w3.org/2000/svg" xmlns:xlink="http://www.w3.org/1999/xlink" x="0px" y="0px"
	 viewBox="0 0 63.2 57.6" style="enable-background:new 0 0 63.2 57.6;" xml:space="preserve">
<style type="text/css">
	.st0{fill:#0D0E0F;}
</style>
<path class="st0" d="M63.2,14c0-0.1-1.9-13.9-14-13.9C48.5,0,42.7-0.4,38.4,3.4C35.5,6,34,10,34,15.1v14.4H10.7V18.1h8.7L16,0.3H3
	L0,18.1h8.7v11.4H0.2v28.2h10.3v-14h22.3v14h10.3V44.6H52v13.1h11.2V14.1L63.2,14z M4.7,2.3h9.7L17,16.1H2.4L4.7,2.3z M41.2,55.6
	h-6.3v-14H8.5v14H2.2V31.5h39V55.6z M61.2,55.6H54V42.6H43.2V29.5H36V15.1c0-4.6,1.3-8,3.7-10.2C43.5,1.5,49,2,49,2l0.1,0
	c4.3,0,7.7,2,9.9,6c1.6,2.8,2.1,5.7,2.1,6.2V55.6z"/>
</svg>
