<svg width="24" height="24" viewBox="0 0 24 24" fill="none" xmlns="http://www.w3.org/2000/svg">
<path d="M11.9022 14.2439C13.0876 14.2439 14.0485 13.2829 14.0485 12.0975C14.0485 10.9121 13.0876 9.95117 11.9022 9.95117C10.7168 9.95117 9.75586 10.9121 9.75586 12.0975C9.75586 13.2829 10.7168 14.2439 11.9022 14.2439Z" fill="black"/>
<path d="M14.585 6.8291H9.21916C8.43867 6.8291 7.75574 7.073 7.31672 7.51203C6.87769 7.95105 6.63379 8.63398 6.63379 9.41447V14.7803C6.63379 15.5608 6.87769 16.2437 7.3655 16.7315C7.8533 17.1706 8.48745 17.4145 9.26794 17.4145H14.585C15.3655 17.4145 16.0484 17.1706 16.4874 16.7315C16.9753 16.2925 17.2192 15.6096 17.2192 14.8291V9.46325C17.2192 8.68276 16.9753 8.04861 16.5362 7.56081C16.0484 7.073 15.4143 6.8291 14.585 6.8291ZM11.9021 15.4145C10.0484 15.4145 8.58501 13.9023 8.58501 12.0974C8.58501 10.2437 10.0972 8.78032 11.9021 8.78032C13.707 8.78032 15.2679 10.2437 15.2679 12.0974C15.2679 13.9511 13.7557 15.4145 11.9021 15.4145ZM15.3655 9.41447C14.9265 9.41447 14.585 9.073 14.585 8.63398C14.585 8.19496 14.9265 7.85349 15.3655 7.85349C15.8045 7.85349 16.146 8.19496 16.146 8.63398C16.146 9.073 15.8045 9.41447 15.3655 9.41447Z" fill="black"/>
<path d="M12 -9.30414e-08C5.36585 -9.30414e-08 2.32603e-08 5.36585 2.32603e-08 12C2.32603e-08 18.6341 5.36585 24 12 24C18.6341 24 24 18.6341 24 12C24.0488 5.36585 18.6341 -9.30414e-08 12 -9.30414e-08ZM18.3902 14.8293C18.3902 15.9512 18 16.9268 17.3171 17.6098C16.6341 18.2927 15.6585 18.6341 14.5854 18.6341H9.26829C8.19512 18.6341 7.21951 18.2927 6.53658 17.6098C5.80488 16.9268 5.46341 15.9512 5.46341 14.8293V9.46341C5.46341 7.21951 6.97561 5.65854 9.26829 5.65854H14.6341C15.7561 5.65854 16.6829 6.04878 17.3659 6.73171C18.0488 7.41463 18.3902 8.34146 18.3902 9.46341V14.8293Z" fill="black"/>
</svg>
