<svg width="24" height="24" viewBox="0 0 24 24" fill="none" xmlns="http://www.w3.org/2000/svg">
<path fill-rule="evenodd" clip-rule="evenodd" d="M24 12C24 18.6274 18.6274 24 12 24C5.37258 24 0 18.6274 0 12C0 5.37258 5.37258 0 12 0C18.6274 0 24 5.37258 24 12ZM12.4886 17.2632H11.5468C11.5468 17.2632 9.46863 17.3883 7.63862 15.483C5.64282 13.4048 3.88019 9.28106 3.88019 9.28106C3.88019 9.28106 3.77858 9.01067 3.88896 8.87997C4.01303 8.73302 4.35101 8.7236 4.35101 8.7236L6.60243 8.70884C6.60243 8.70884 6.81463 8.74435 6.96651 8.8558C7.09164 8.94778 7.16181 9.11977 7.16181 9.11977C7.16181 9.11977 7.52567 10.04 8.00761 10.8726C8.94818 12.4979 9.38627 12.8534 9.70564 12.6793C10.1709 12.4253 10.0314 10.3816 10.0314 10.3816C10.0314 10.3816 10.04 9.63979 9.7972 9.30951C9.60917 9.05346 9.2545 8.9788 9.09792 8.95784C8.97128 8.94094 9.17921 8.64681 9.44873 8.51483C9.85388 8.31632 10.5694 8.30498 11.4148 8.31375C12.0734 8.32038 12.263 8.36145 12.5205 8.4237C13.118 8.56798 13.0994 9.03028 13.0592 10.0278C13.0472 10.3258 13.0332 10.6717 13.0332 11.0711C13.0332 11.1609 13.0306 11.2567 13.0279 11.3553C13.014 11.8661 12.998 12.451 13.3342 12.6683C13.5066 12.7796 13.9285 12.685 14.9835 10.8935C15.4836 10.0445 15.8586 9.04618 15.8586 9.04618C15.8586 9.04618 15.9405 8.86821 16.0678 8.79184C16.1981 8.71398 16.3737 8.73794 16.3737 8.73794L18.743 8.72318C18.743 8.72318 19.4549 8.63825 19.5702 8.95955C19.691 9.29689 19.3041 10.0845 18.3361 11.3746C17.4169 12.5998 16.9702 13.0501 17.0122 13.449C17.0428 13.7398 17.3332 14.0032 17.8895 14.5195C19.0557 15.6021 19.3665 16.1705 19.4404 16.3055C19.4464 16.3165 19.4508 16.3246 19.454 16.3299C19.976 17.1953 18.8752 17.2632 18.8752 17.2632L16.7709 17.2925C16.7709 17.2925 16.3187 17.3821 15.7236 16.9733C15.4124 16.7597 15.1081 16.4109 14.8182 16.0785C14.3751 15.5705 13.9655 15.1009 13.6159 15.2117C13.0294 15.3979 13.0478 16.6616 13.0478 16.6616C13.0478 16.6616 13.0521 16.9316 12.9184 17.0753C12.7731 17.2319 12.4886 17.2632 12.4886 17.2632Z" fill="black"/>
</svg>
