<svg width="24" height="24" viewBox="0 0 24 24" fill="none" xmlns="http://www.w3.org/2000/svg">
<path fill-rule="evenodd" clip-rule="evenodd" d="M24 12C24 18.6274 18.6274 24 12 24C5.37258 24 0 18.6274 0 12C0 5.37258 5.37258 0 12 0C18.6274 0 24 5.37258 24 12ZM17.35 9.1C17.4 9.15 17.4 9.2 17.4 9.25C17.5 9.75 17.6 10.8 17.6 12C17.6 12.9802 17.4999 13.8604 17.436 14.4224C17.4217 14.5484 17.4092 14.6584 17.4 14.75C17.35 14.8 17.35 14.85 17.35 14.9V14.95C17.2 15.4 16.8 15.7 16.3 15.7H16.4C16.4 15.7 14.4 16 11.8 16C9.15 16 7.2 15.7 7.2 15.7H7.3C6.8 15.7 6.4 15.4 6.25 14.95V14.9C6.2 14.85 6.2 14.8 6.2 14.75C6.19084 14.6584 6.17833 14.5484 6.164 14.4224C6.10009 13.8604 6 12.9802 6 12C6 11.0198 6.10009 10.1396 6.164 9.57759C6.17833 9.45159 6.19084 9.34157 6.2 9.25C6.25 9.2 6.25 9.15 6.25 9.1V9.05C6.4 8.6 6.8 8.3 7.3 8.3H7.2C7.2 8.3 9.2 8 11.8 8C14.45 8 16.4 8.3 16.4 8.3H16.3C16.8 8.3 17.2 8.6 17.35 9.05V9.1ZM11.15 13.95L13.5 12.25C13.6 12.2 13.65 12.1 13.6 12C13.6 11.9 13.55 11.8 13.5 11.75L11.15 10.05C11.05 10 10.95 10 10.85 10.05C10.75 10.1 10.7 10.2 10.7 10.3V13.7C10.7 13.8 10.75 13.9 10.85 13.95C10.9 14 10.95 14 11 14C11.05 14 11.1 14 11.15 13.95Z" fill="black"/>
</svg>
