<?xml version="1.0" encoding="utf-8"?>
<!-- Generator: Adobe Illustrator 21.0.0, SVG Export Plug-In . SVG Version: 6.00 Build 0)  -->
<svg version="1.1" id="Layer_1" xmlns="http://www.w3.org/2000/svg" xmlns:xlink="http://www.w3.org/1999/xlink" x="0px" y="0px"
	 viewBox="0 0 49 25" style="enable-background:new 0 0 49 25;" xml:space="preserve">
<style type="text/css">
	.st0{fill:#C2C2C2;}
</style>
<path class="st0" d="M23,16h-3v-1.9h0.8v1.1h2c0.3,0,0.4-0.3,0.4-0.5v-1.6c0-0.3,0-0.5-0.4-0.5h-1.8c-0.6,0-0.9-0.4-0.9-1V10
	c0-0.8,0.4-1,1.1-1h2.8v1.8h-0.8V9.7h-1.8c-0.4,0-0.4,0.2-0.4,0.5v1.5c0,0.2,0,0.4,0.3,0.4h1.8c0.6,0,0.9,0.2,0.9,0.9v2.2
	C24,15.8,23.5,16,23,16z M28.3,12l-2.1,0V9.7h2.2v1.1h0.8V9h-4.4v0.7h0.6v5.6h-0.6V16h4.4v-1.9h-0.8v1.1h-2.2v-2.5h2.1V12L28.3,12z
	 M30.8,16l3,0v-1.9H33v1.1h-1.9c-0.3,0-0.4-0.2-0.4-0.4v-4.7c0-0.3,0.1-0.4,0.4-0.4H33v1.1h0.8V9h-2.8c-0.8,0-1,0.5-1,1.1V15
	C29.9,15.5,30.1,16,30.8,16L30.8,16z M35.8,12.7h1.9c0.3,0,0.4,0.2,0.4,0.5v2.1h-0.6V16h2.1v-0.7h-0.7v-2.2c0-0.6-0.4-0.7-0.6-0.7v0
	c0.1-0.1,0.5-0.2,0.5-0.7V9.9c0-0.4-0.2-0.9-0.9-0.9h-3.5v0.7h0.6v5.6h-0.6V16h2v-0.7h-0.6V12.7z M35.8,12V9.7h1.9
	c0.3,0,0.3,0.2,0.3,0.5v1.4c0,0.2-0.1,0.5-0.4,0.5H35.8z M43.3,12l-2.1,0V9.7h2.2v1.1h0.8V9h-4.4v0.7h0.6v5.6h-0.6V16h4.4v-1.9h-0.8
	v1.1h-2.2v-2.5h2.1V12L43.3,12z M48.2,11.1H49V9h-4.5v2.1h0.8V9.7h1.1v5.6h-0.8V16H48v-0.7h-0.8V9.7h1.1L48.2,11.1L48.2,11.1z
	 M15.8,11.2v-2c0-0.4-0.1-0.6-0.3-0.5l-1.6,0.2v3.1l1.5,0C15.7,11.8,15.8,11.5,15.8,11.2z M15.5,12.7l-1.6,0v3.4l1.5,0.1
	c0.4,0,0.4-0.2,0.4-0.6v-2.2C15.9,13,15.8,12.7,15.5,12.7z M18.5,0v25L0,19.6V5.9L18.5,0z M7.9,8.6L6.1,8.8v0.8l0.5,0l-0.8,4.9l0,0
	L4.9,9L4,9.1l-0.9,5.2l0,0L2.4,9.9l0.5,0V9.2L1,9.4v0.6L1.6,10l1,5.7l0.8,0.1l1-5.4l0,0L5.3,16l0.8,0.1l1.1-6.7l0.6-0.1L7.9,8.6z
	 M12.2,8L8.3,8.5v0.8l0.5-0.1v6.3l-0.5,0v0.8l3.8,0.4v-2.3l-0.7,0v1.4l-1.9-0.2v-2.9l1.9,0v-0.9l-1.9,0V9.2L11.5,9v1.3l0.7,0L12.2,8
	z M16.6,13.4c0-0.8-0.3-1.1-0.6-1.2v-0.1c0.3-0.1,0.5-0.5,0.5-1.1v-2c0-1.1-0.3-1.6-1-1.5L12.7,8v0.9l0.5-0.1V16l-0.5,0v0.9l2.8,0.3
	c1,0.1,1.1-0.4,1.1-1.7V13.4z"/>
</svg>
