<?xml version="1.0" encoding="utf-8"?>
<!-- Generator: Adobe Illustrator 22.0.0, SVG Export Plug-In . SVG Version: 6.00 Build 0)  -->
<svg version="1.1" id="Layer_1" xmlns="http://www.w3.org/2000/svg" xmlns:xlink="http://www.w3.org/1999/xlink" x="0px" y="0px"
	 viewBox="0 0 30 30" style="enable-background:new 0 0 30 30;" xml:space="preserve">
<style type="text/css">
	.st0{fill:#D7446B;}
</style>
<path class="st0" d="M4.1,30C1.8,30,0,28.2,0,25.9V4.1C0,1.8,1.8,0,4.1,0h21.8C28.2,0,30,1.8,30,4.1v21.8c0,2.3-1.8,4.1-4.1,4.1H4.1
	z M4.1,1.9c-1.3,0-2.2,0.9-2.2,2.2v21.8c0,1.3,0.9,2.2,2.2,2.2h21.8c1.3,0,2.2-0.9,2.2-2.2V4.1c0-1.3-0.9-2.2-2.2-2.2H4.1z
	 M5.4,22.6c-0.5,0-0.9-0.4-0.9-0.9c0-0.5,0.4-0.9,0.9-0.9h10.2c0.5,0,0.9,0.4,0.9,0.9c0,0.5-0.4,0.9-0.9,0.9H5.4z M10.8,15.9
	c-0.5,0-0.9-0.4-0.9-0.9c0-0.5,0.4-0.9,0.9-0.9h8.4c0.5,0,0.9,0.4,0.9,0.9c0,0.5-0.4,0.9-0.9,0.9H10.8z M14.4,9.3
	c-0.5,0-0.9-0.4-0.9-0.9s0.4-0.9,0.9-0.9h10.2c0.5,0,0.9,0.4,0.9,0.9s-0.4,0.9-0.9,0.9H14.4z"/>
</svg>
