<?xml version="1.0" encoding="utf-8"?>
<!-- Generator: Adobe Illustrator 22.0.0, SVG Export Plug-In . SVG Version: 6.00 Build 0)  -->
<svg version="1.1" id="Layer_1" xmlns="http://www.w3.org/2000/svg" xmlns:xlink="http://www.w3.org/1999/xlink" x="0px" y="0px"
	 viewBox="0 0 34 34" style="enable-background:new 0 0 34 34;" xml:space="preserve">
<style type="text/css">
	.st0{fill:#00AEEF;}
</style>
<path class="st0" d="M28.1,0c-3.2,0-5.9,2.7-5.9,6.1s2.6,6.1,5.9,6.1S34,9.4,34,6.1S31.4,0,28.1,0z M28.1,10.1c-2.2,0-3.9-1.8-3.9-4
	s1.8-4,3.9-4s3.9,1.8,3.9,4S30.3,10.1,28.1,10.1z M29.3,15.2V16v2.5v11.3c0,2.3-1.7,4.1-4,4.1H4c-2.3,0-4-1.8-4-4.1V8
	c0-2.3,1.7-4.1,4-4.1h11.5H18h0.8c0.5,0,0.9,0.4,0.9,0.9c0,0.5-0.4,0.9-0.9,0.9h-0.3h-3H4C2.7,5.8,1.8,6.7,1.8,8v21.9
	c0,1.3,0.9,2.2,2.1,2.2h21.3c1.3,0,2.1-0.9,2.1-2.2v-14c0,0,0,0,0,0v-0.7c0-0.5,0.4-0.9,0.9-0.9C28.9,14.3,29.3,14.7,29.3,15.2z"/>
</svg>
