<?xml version="1.0" encoding="utf-8"?>
<!-- Generator: Adobe Illustrator 22.0.0, SVG Export Plug-In . SVG Version: 6.00 Build 0)  -->
<svg version="1.1" id="Layer_1" xmlns="http://www.w3.org/2000/svg" xmlns:xlink="http://www.w3.org/1999/xlink" x="0px" y="0px"
	 viewBox="0 0 37 24" style="enable-background:new 0 0 37 24;" xml:space="preserve">
<style type="text/css">
	.st0{fill:#F4EC68;}
</style>
<path class="st0" d="M32.4,16c-1.9,0-3.5,1.3-3.9,3.1H7.9c-0.5-2.2-2.6-3.5-4.8-3c-2.1,0.5-3.5,2.6-3,4.8s2.6,3.5,4.8,3
	c1.5-0.3,2.7-1.5,3-3h20.6c0.5,2.2,2.6,3.5,4.8,3c2.1-0.5,3.5-2.6,3-4.8C35.9,17.3,34.2,16,32.4,16z M4,22.2c-1.2,0-2.2-1-2.2-2.2
	s1-2.2,2.2-2.2s2.2,1,2.2,2.2C6.2,21.2,5.2,22.2,4,22.2z M32.4,22.2c-1.2,0-2.2-1-2.2-2.2s1-2.2,2.2-2.2s2.2,1,2.2,2.2
	C34.6,21.2,33.6,22.2,32.4,22.2z M33.3,9.9V7.1c0-2.2-1.8-4-4-4H7.9C7.4,1,5.3-0.4,3.1,0.1C1,0.6-0.4,2.7,0.1,4.9s2.6,3.5,4.8,3
	c1.5-0.3,2.7-1.5,3-3h21.4c1.2,0,2.2,1,2.2,2.2v2.7L29,7.4l-1.3,1.3l4.6,4.6L37,8.6l-1.3-1.3L33.3,9.9z M4,6.2c-1.2,0-2.2-1-2.2-2.2
	s1-2.2,2.2-2.2s2.2,1,2.2,2.2C6.2,5.2,5.2,6.2,4,6.2z"/>
</svg>
