<?xml version="1.0" encoding="utf-8"?>
<!-- Generator: Adobe Illustrator 22.0.0, SVG Export Plug-In . SVG Version: 6.00 Build 0)  -->
<svg version="1.1" id="Layer_1" xmlns="http://www.w3.org/2000/svg" xmlns:xlink="http://www.w3.org/1999/xlink" x="0px" y="0px"
	 viewBox="0 0 34 34" style="enable-background:new 0 0 34 34;" xml:space="preserve">
<style type="text/css">
	.st0{fill:#823CA6;}
</style>
<path class="st0" d="M33.1,7.4C33.6,7.4,34,7,34,6.5V0.9C34,0.4,33.6,0,33.1,0h-5.6c-0.5,0-0.9,0.4-0.9,0.9v1.9H7.4V0.9
	C7.4,0.4,7,0,6.5,0H0.9C0.4,0,0,0.4,0,0.9v5.6C0,7,0.4,7.4,0.9,7.4h1.9v19.2H0.9C0.4,26.6,0,27,0,27.5v5.6C0,33.6,0.4,34,0.9,34h5.6
	c0.5,0,0.9-0.4,0.9-0.9v-1.9h19.2v1.9c0,0.5,0.4,0.9,0.9,0.9h5.6c0.5,0,0.9-0.4,0.9-0.9v-5.6c0-0.5-0.4-0.9-0.9-0.9h-1.9V7.4H33.1z
	 M28.4,1.8h3.8v3.8h-3.8V1.8z M1.8,1.8h3.8v3.8H1.8V1.8z M5.6,32.2H1.8v-3.8h3.8V32.2z M32.2,32.2h-3.8v-3.8h3.8V32.2z M29.4,26.6
	h-1.9c-0.5,0-0.9,0.4-0.9,0.9v1.9H7.4v-1.9c0-0.5-0.4-0.9-0.9-0.9H4.6V7.4h1.9C7,7.4,7.4,7,7.4,6.5V4.6h19.2v1.9
	c0,0.5,0.4,0.9,0.9,0.9h1.9V26.6z"/>
</svg>
