<?xml version="1.0" encoding="utf-8"?>
<!-- Generator: Adobe Illustrator 22.0.0, SVG Export Plug-In . SVG Version: 6.00 Build 0)  -->
<svg version="1.1" id="Layer_1" xmlns="http://www.w3.org/2000/svg" xmlns:xlink="http://www.w3.org/1999/xlink" x="0px" y="0px"
	 viewBox="0 0 54 54" style="enable-background:new 0 0 54 54;" xml:space="preserve">
<style type="text/css">
	.st0{fill:#D7446B;}
</style>
<g>
	<path class="st0" d="M27,0C12.1,0,0,12.1,0,27s12.1,27,27,27s27-12.1,27-27S41.9,0,27,0z M27,51.4C13.6,51.4,2.6,40.4,2.6,27
		S13.6,2.6,27,2.6S51.4,13.6,51.4,27S40.4,51.4,27,51.4z"/>
	<path class="st0" d="M41.3,12.7c-0.5-0.5-1.3-0.5-1.9,0L27,25.1L14.5,12.7c-0.5-0.5-1.3-0.5-1.9,0c-0.5,0.5-0.5,1.3,0,1.9L25.1,27
		L12.7,39.5c-0.5,0.5-0.5,1.3,0,1.9c0.3,0.3,0.6,0.4,0.9,0.4s0.7-0.1,0.9-0.4L27,28.9l12.5,12.5c0.3,0.3,0.6,0.4,0.9,0.4
		s0.7-0.1,0.9-0.4c0.5-0.5,0.5-1.3,0-1.9L28.9,27l12.5-12.5C41.9,14,41.9,13.2,41.3,12.7z"/>
</g>
</svg>
