<?xml version="1.0" encoding="utf-8"?>
<!-- Generator: Adobe Illustrator 22.0.0, SVG Export Plug-In . SVG Version: 6.00 Build 0)  -->
<svg version="1.1" id="Layer_1" xmlns="http://www.w3.org/2000/svg" xmlns:xlink="http://www.w3.org/1999/xlink" x="0px" y="0px"
	 viewBox="0 0 11 9" style="enable-background:new 0 0 11 9;" xml:space="preserve">
<style type="text/css">
	.st0{fill:#8697A1;}
</style>
<path class="st0" d="M10.7,3.7L7.5,0.3C7.1-0.1,6.4-0.1,6,0.3C5.6,0.8,5.6,1.5,6,1.9l1.4,1.5H1.1C0.5,3.4,0,3.9,0,4.5
	s0.5,1.1,1.1,1.1h6.3L6,7.1C5.6,7.5,5.6,8.2,6,8.7C6.2,8.9,6.5,9,6.7,9C7,9,7.3,8.9,7.5,8.7l3.2-3.4C10.9,5.1,11,4.8,11,4.5
	C11,4.2,10.9,3.9,10.7,3.7z"/>
</svg>
