<?xml version="1.0" encoding="utf-8"?>
<!-- Generator: Adobe Illustrator 22.0.0, SVG Export Plug-In . SVG Version: 6.00 Build 0)  -->
<svg version="1.1" id="Layer_1" xmlns="http://www.w3.org/2000/svg" xmlns:xlink="http://www.w3.org/1999/xlink" x="0px" y="0px"
	 viewBox="0 0 52 52" style="enable-background:new 0 0 52 52;" xml:space="preserve">
<style type="text/css">
	.st0{fill:#D7446B;}
</style>
<path class="st0" d="M51.6,49.4L37.5,35.3c3.3-3.8,5.2-8.6,5.2-14C42.7,9.6,33.1,0,21.4,0C9.6,0,0,9.6,0,21.4s9.6,21.4,21.4,21.4
	c5.3,0,10.2-2,14-5.2l14.1,14.1c0.3,0.3,0.7,0.4,1.1,0.4c0.4,0,0.8-0.1,1.1-0.4C52.1,51,52.1,50,51.6,49.4z M3,21.4
	C3,11.2,11.2,3,21.4,3c10.1,0,18.3,8.2,18.3,18.3s-8.2,18.3-18.3,18.3C11.2,39.7,3,31.5,3,21.4z"/>
</svg>
