<?xml version="1.0" encoding="utf-8"?>
<!-- Generator: Adobe Illustrator 22.0.0, SVG Export Plug-In . SVG Version: 6.00 Build 0)  -->
<svg version="1.1" id="Layer_1" xmlns="http://www.w3.org/2000/svg" xmlns:xlink="http://www.w3.org/1999/xlink" x="0px" y="0px"
	 viewBox="0 0 11 9" style="enable-background:new 0 0 11 9;" xml:space="preserve">
<style type="text/css">
	.st0{fill:#8697A1;}
</style>
<path class="st0" d="M0,4.5c0,0.3,0.1,0.6,0.3,0.8l3.2,3.4C3.7,8.9,4,9,4.3,9C4.5,9,4.8,8.9,5,8.7c0.4-0.4,0.4-1.1,0-1.6L3.6,5.6
	h6.3c0.6,0,1.1-0.5,1.1-1.1s-0.5-1.1-1.1-1.1H3.6L5,1.9c0.4-0.4,0.4-1.1,0-1.6c-0.4-0.4-1.1-0.4-1.5,0L0.3,3.7C0.1,3.9,0,4.2,0,4.5z
	"/>
</svg>
