<?xml version="1.0" encoding="utf-8"?>
<!-- Generator: Adobe Illustrator 22.0.0, SVG Export Plug-In . SVG Version: 6.00 Build 0)  -->
<svg version="1.1" id="Layer_1" xmlns="http://www.w3.org/2000/svg" xmlns:xlink="http://www.w3.org/1999/xlink" x="0px" y="0px"
	 viewBox="0 0 16 17" style="enable-background:new 0 0 16 17;" xml:space="preserve">
<style type="text/css">
	.st0{fill:#FFFFFF;}
</style>
<path class="st0" d="M15.5,15.1c-0.7-0.7-1.2-1.3-2.3-2.4l-0.3-0.3c-0.8-0.8-1.3-1.3-1.7-1.8c0.9-1.1,1.4-2.6,1.4-4.1
	C12.6,2.9,9.8,0,6.3,0C2.8,0,0,2.9,0,6.5s2.8,6.5,6.3,6.5c1.2,0,2.4-0.4,3.4-1c0.4,0.4,0.8,0.8,1.4,1.5l0.1,0.1
	c0.3,0.3,0.5,0.5,0.7,0.7c0.2,0.2,0.3,0.3,0.6,0.7l0,0c0.8,0.8,1.2,1.2,1.6,1.7c0.5,0.5,1.1,0.7,1.6,0.2
	C16.2,16.2,16,15.6,15.5,15.1z M1.6,6.5c0-2.7,2.1-4.9,4.7-4.9c2.6,0,4.7,2.2,4.7,4.9c0,2.7-2.1,4.9-4.7,4.9
	C3.7,11.3,1.6,9.1,1.6,6.5z"/>
</svg>
