<?xml version="1.0" standalone="no"?>
<!DOCTYPE svg PUBLIC "-//W3C//DTD SVG 20010904//EN"
 "http://www.w3.org/TR/2001/REC-SVG-20010904/DTD/svg10.dtd">
<svg version="1.0" xmlns="http://www.w3.org/2000/svg"
 width="700.000000pt" height="700.000000pt" viewBox="0 0 700.000000 700.000000"
 preserveAspectRatio="xMidYMid meet">
<metadata>
Created by potrace 1.11, written by Peter Selinger 2001-2013
</metadata>
<g transform="translate(0.000000,700.000000) scale(0.100000,-0.100000)"
fill="#000000" stroke="none">
<path d="M5550 6290 c-396 -43 -749 -171 -1068 -385 -53 -36 -112 -77 -131
-92 -184 -150 -271 -235 -436 -428 -33 -38 -62 -72 -65 -75 -3 -3 -53 -61
-110 -130 -58 -69 -111 -131 -119 -139 -18 -19 -329 -395 -411 -496 -36 -44
-67 -82 -70 -85 -11 -10 -176 -226 -230 -300 -65 -90 -104 -138 -299 -366 -14
-17 -43 -51 -63 -75 -108 -130 -173 -207 -197 -234 -14 -16 -85 -100 -156
-185 -71 -85 -132 -157 -135 -160 -3 -3 -53 -61 -110 -130 -57 -69 -107 -127
-110 -130 -3 -3 -52 -61 -110 -130 -58 -69 -115 -136 -126 -150 -12 -14 -77
-90 -144 -170 -67 -80 -132 -156 -143 -170 -12 -14 -44 -52 -72 -85 -27 -33
-54 -65 -60 -71 -5 -6 -53 -62 -105 -124 -139 -166 -276 -328 -325 -385 -23
-27 -108 -129 -189 -225 -81 -96 -167 -197 -191 -225 -23 -27 -73 -86 -110
-130 -82 -98 -125 -149 -205 -243 l-62 -73 563 4 c310 2 582 7 604 11 150 27
315 81 439 143 89 45 239 137 266 164 8 9 22 20 31 25 9 5 47 37 86 71 61 56
71 70 91 130 12 38 34 82 49 98 16 17 51 57 78 90 28 33 58 69 67 80 9 11 88
104 175 206 87 102 212 249 278 326 l120 141 950 0 c620 1 973 4 1015 11 107
18 122 21 195 42 225 66 452 224 597 416 70 93 139 218 154 279 6 24 8 25 14
8 3 -10 6 -520 6 -1132 l-1 -1112 612 0 613 0 0 2800 0 2800 -692 -1 c-381 -1
-722 -6 -758 -9z m221 -958 c1 -4 2 -505 3 -1114 1 -980 -1 -1108 -14 -1109
-8 -1 -491 -2 -1072 -3 -938 -1 -1055 1 -1044 14 81 96 422 498 430 506 6 7
20 22 30 35 16 20 148 175 220 259 11 14 57 68 101 120 44 52 82 97 85 100 3
3 39 46 80 95 41 50 78 92 81 95 3 3 82 95 175 205 93 110 179 211 191 225 11
14 39 46 61 71 21 26 67 86 101 133 34 47 67 86 72 86 5 0 9 7 9 16 0 8 -4 12
-10 9 -30 -19 0 19 72 92 56 56 90 83 106 83 12 0 39 8 60 19 54 27 131 53
177 58 22 3 41 6 42 7 6 5 43 4 44 -2z"/>
</g>
</svg>
