<svg xmlns="http://www.w3.org/2000/svg"><symbol id="arrow_down-filter" viewBox="0 0 14 9"><style>.st0{fill:#5d6573}</style><path class="st0" d="M2.6 1.4c-.3-.4-.9-.4-1.2 0-.4.3-.4.9 0 1.2l5 5c.3.4.9.4 1.2 0l5-5c.3-.3.3-.9 0-1.2-.3-.3-.9-.3-1.2 0L7 5.8 2.6 1.4z"/></symbol><symbol id="arrow_down-mobile" viewBox="0 0 14 9"><style>.st0{fill:#fff}</style><path d="M2.6 1.4c-.3-.4-.9-.4-1.2 0-.4.3-.4.9 0 1.2l5 5c.3.4.9.4 1.2 0l5-5c.3-.3.3-.9 0-1.2-.3-.3-.9-.3-1.2 0L7 5.8 2.6 1.4z" fill="#ffff"/></symbol><symbol id="arrow_down" viewBox="0 0 14 9"><style>.st0{fill:#9199a6}</style><path class="st0" d="M2.6 1.4c-.3-.4-.9-.4-1.2 0-.4.3-.4.9 0 1.2l5 5c.3.4.9.4 1.2 0l5-5c.3-.3.3-.9 0-1.2-.3-.3-.9-.3-1.2 0L7 5.8 2.6 1.4z"/></symbol><symbol id="arrow_down_rw" viewBox="0 0 13 9"><style>.st0{fill:#9199a6}</style><path class="st0" d="M11.5 1.5c-.5-.6-1.5-.6-2.1 0L6.5 4.4 3.6 1.5C3 .9 2 .9 1.5 1.5c-.6.6-.6 1.5 0 2.1l3.9 3.9c.3.3.7.5 1.1.5.4 0 .8-.1 1.1-.4l3.9-3.9c.6-.7.6-1.6 0-2.2z"/></symbol><symbol id="bad" viewBox="0 0 62 58.7"><style>.st0{fill:#0d0e0f}</style><path class="st0" d="M62 34.2H12.5V6.8c0-1.3.4-2.4 1.2-3.2C15.3 2 18.2 2 18.2 2c1.7 0 3.1.5 4 1.4.8.8 1.1 1.8 1.2 2.5-4.5.6-8.1 4.5-8.1 9.2v1h18.6v-1c0-4.9-3.7-8.8-8.5-9.3-.1-1-.6-2.6-1.8-3.9-1.3-1.3-3.1-2-5.4-2-.2 0-3.7 0-5.9 2.2-1.2 1.2-1.8 2.7-1.8 4.6V34H0v2h5.2L11 58.5h40.1L56.6 36H62v-1.8zM31.8 14.1H17.4c.5-3.5 3.5-6.3 7.2-6.3s6.8 2.8 7.2 6.3zm17.7 42.6H12.6L7.3 36.2h47.3l-5.1 20.5z"/></symbol><symbol id="logo" viewBox="0 0 138 54"><style>.st0{fill:#fff}.st1{fill:#76bc21}</style><path class="st0" d="M32.4 45.3c.9-.4 1.5-1.2 1.5-2.3 0-1.7-1.3-3.1-3.8-3.1h-4.6v8.2c0 2.3 1 3.1 2.7 3.1h2.1c2.7 0 4.2-1.3 4.2-3.2-.1-1.5-1-2.3-2.1-2.7zm-5.1-3.8h2.5c1.6 0 2.2.6 2.2 1.6 0 .9-.6 1.6-2.2 1.6h-2.5v-3.2zm2.7 8.1h-1.6c-.9 0-1.2-.3-1.2-1.8v-1.6h2.5c1.8 0 2.8.5 2.8 1.7 0 1.1-.8 1.7-2.5 1.7zM9.6 39.9h-7c-.1 3.4-.6 6.7-1.6 9.8H0v4h1.8v-2.5h7.3v2.5h1.8v-4H9.6v-9.8zm-1.9 9.8H2.9c.8-2.7 1.2-5.7 1.4-8.2h3.5v8.2zm10.3-10c-3 0-5.5 2.2-5.5 5.9 0 3.5 2.4 5.9 5.6 5.9 2 0 3.4-.8 3.4-1.4 0-.3-.1-.6-.3-.8-.9.5-1.8.7-2.8.7-2.1 0-3.8-1.2-4-3.6h6.3c.8 0 1.2-.2 1.5-.9.2-.4.3-1 .3-1.6 0-2.5-1.8-4.2-4.5-4.2zm2.5 5h-6.2c.2-2.2 1.7-3.5 3.6-3.5 1.7 0 2.8 1 2.8 2.6 0 .4 0 .7-.2.9zm103.3-.1h-5.6v-4.7h-1.8v11.3h1.8v-5.1h5.6v5.1h1.8V39.9h-1.8v4.7zM98 39.9l-3.4 6-3.4-6h-1.8L88 51.2h1.8l1.1-8.8 2.9 5.2h1.7l2.9-5.2 1.1 8.8h1.8l-1.4-11.3H98zm11.1-.2c-3 0-5.5 2.2-5.5 5.9 0 3.5 2.4 5.9 5.6 5.9 2 0 3.4-.8 3.4-1.4 0-.3-.1-.6-.3-.8-.9.5-1.8.7-2.8.7-2.1 0-3.8-1.2-4-3.6h6.3c.8 0 1.2-.2 1.5-.9.2-.4.3-1 .3-1.6 0-2.5-1.8-4.2-4.5-4.2zm2.5 5h-6.2c.2-2.2 1.7-3.5 3.6-3.5 1.7 0 2.8 1 2.8 2.6 0 .4-.1.7-.2.9zm16.8-4.8v1.6h3.9v9.7h1.8v-9.7h3.9v-1.6h-9.6zm-86-.2c-3 0-5.5 2.2-5.5 5.9 0 3.5 2.4 5.9 5.6 5.9 2 0 3.4-.8 3.4-1.4 0-.3-.1-.6-.3-.8-.9.5-1.8.7-2.8.7-2.1 0-3.8-1.2-4-3.6h6.3c.8 0 1.2-.2 1.5-.9.2-.4.3-1 .3-1.6 0-2.5-1.8-4.2-4.5-4.2zm2.5 5h-6.2c.2-2.2 1.7-3.5 3.6-3.5 1.7 0 2.8 1 2.8 2.6 0 .4-.1.7-.2.9zm5.5 2.9c-.3 1.9-.8 2.3-1.5 2.3-.4 0-.8-.1-1.2-.3-.1.2-.3.6-.3.8 0 .4 1 .9 1.9.9 1.6 0 2.6-1 2.9-3.6.3-2.1.4-4.6.5-6.4h4.7V51h1.8V39.9h-8.3c0 2.8-.2 5.6-.5 7.7zm25.5 3.6h1.8v-9.7h5.5v9.7H85V39.9h-9.2v11.3zm-8.3-11.5c-3 0-5.5 2.2-5.5 5.9s2.5 5.9 5.5 5.9 5.5-2.2 5.5-5.9c0-3.8-2.6-5.9-5.5-5.9zm.1 10.2c-1.9 0-3.7-1.5-3.7-4.4 0-2.9 1.7-4.2 3.5-4.2 1.9 0 3.7 1.5 3.7 4.4 0 2.9-1.7 4.2-3.5 4.2z"/><path class="st1" d="M41.5 17.5h4.2c2.9 0 5.3-1.9 6-4.6h-4.2c-2.8 0-5.2 1.9-6 4.6zM29.5.9c-3.6 0-6.8 1.6-9 4-1.4 1.5-4.3 5.2-6 7.3L0 29.5h4.8c2.1 0 4.1-.9 5.5-2.6l.3-.4 3.7-4.5h9.1c2.7 0 4.9-1.6 5.8-4l.1-.2c0-.1.1-.3.1-.4H18.2l7.6-9c.2-.3.5-.6.7-.9l.2-.2.2-.2.2-.2.1-.2.2-.2.1-.1.1-.1.2-.1c.4-.3 1-.4 1.5-.4h.1v23.8h6.3V.9h-6.2zm101.3.4c-2-.6-5-1-8.4-1-3.1 0-5.9.3-7.8.9-4.5 1-7.9 5-7.9 9.8v8.5c0 5.2 3.9 9.4 9 10 1.9.4 4.2.6 6.8.6 2.6 0 5-.2 6.9-.7 4.9-.6 8.7-4.8 8.7-9.9V11c-.1-4.6-3.1-8.5-7.3-9.7zm1 16.8c0 2.3-1.2 4.3-2.9 5.5-1.3 1-3.7 1.7-6.5 1.7s-5.2-.7-6.5-1.7c-1.8-1.2-2.9-3.2-2.9-5.5v-5.7c0-2.5 1.4-4.6 3.4-5.8 1.4-.8 3.5-1.3 6-1.3s4.6.5 6 1.3c2 1.1 3.4 3.3 3.4 5.8v5.7zm-74.3-7.8v19.1h6.3V1c-3.7 1.5-6.3 5.1-6.3 9.3zm36.1-9c-2-.6-5-1-8.4-1-3.1 0-5.9.3-7.8.9-4.5 1-7.9 5-7.9 9.8v8.5c0 5.2 3.9 9.4 9 10 1.9.4 4.2.6 6.8.6 2.6 0 5-.2 6.9-.7 4.9-.6 8.7-4.8 8.7-9.9V11c0-4.6-3.1-8.5-7.3-9.7zm1 16.8c0 2.3-1.2 4.3-2.9 5.5-1.3 1-3.7 1.7-6.5 1.7s-5.2-.7-6.5-1.7c-1.8-1.2-2.9-3.2-2.9-5.5v-5.7c0-2.5 1.4-4.6 3.4-5.8 1.4-.8 3.5-1.3 6-1.3s4.6.5 6 1.3c2 1.1 3.4 3.3 3.4 5.8v5.7z"/></symbol><symbol id="logo_footer1" viewBox="0 0 57 25"><style>.st0{fill:#54565a}.st1{fill:#76bc21}</style><path class="st0" d="M27.8 20.4c-.8 0-1.5-.6-1.5-1.8 0-1.2.7-1.7 1.5-1.7s1.5.6 1.5 1.8c0 1.1-.7 1.7-1.5 1.7m0-4.2c-1.2 0-2.3.9-2.3 2.4s1 2.4 2.3 2.4c1.2 0 2.3-.9 2.3-2.4-.1-1.5-1.1-2.4-2.3-2.4m3.4 4.7h.8v-4h2.3v4h.7v-4.6h-3.8v4.6zm-10.5-1.5c-.1.8-.3 1-.6 1-.2 0-.3 0-.5-.1-.1.1-.1.2-.1.3 0 .2.4.4.8.4.7 0 1.1-.4 1.2-1.5.1-.9.2-1.9.2-2.6h1.9v4h.8v-4.6H21c-.1 1.1-.1 2.3-.3 3.1m-2.2-1.1H16c.1-.9.7-1.4 1.5-1.4.7 0 1.1.4 1.1 1.1-.1 0-.1.2-.1.3m-1.1-2.1c-1.2 0-2.3.9-2.3 2.4 0 1.4 1 2.4 2.3 2.4.8 0 1.4-.3 1.4-.6 0-.1 0-.3-.1-.3-.4.2-.7.3-1.2.3-.9 0-1.5-.5-1.6-1.5h2.6c.3 0 .5-.1.6-.4.1-.2.1-.4.1-.7.1-.9-.7-1.6-1.8-1.6m35.4.1v.6h1.6v4h.8v-4h1.6v-.6h-4zm-6.9 2h-2.5c.1-.9.7-1.4 1.5-1.4.7 0 1.1.4 1.1 1.1 0 0-.1.2-.1.3m-1-2.1c-1.2 0-2.3.9-2.3 2.4 0 1.4 1 2.4 2.3 2.4.8 0 1.4-.3 1.4-.6 0-.1 0-.3-.1-.3-.4.2-.7.3-1.2.3-.9 0-1.5-.5-1.6-1.5H46c.3 0 .5-.1.6-.4.1-.2.1-.4.1-.7 0-.9-.8-1.6-1.8-1.6m-4.6.1l-1.4 2.5-1.4-2.5h-.8l-.6 4.6h.8l.5-3.6 1.2 2.1h.7l1.2-2.1.5 3.6h.8l-.8-4.6h-.7zm10.6 1.9h-2.3v-1.9h-.8v4.6h.8v-2.1h2.3v2.1h.8v-4.6h-.8v1.9zm-42.4.1H5.9c.1-.9.7-1.4 1.5-1.4.7 0 1.1.4 1.1 1.1v.3m-1.1-2.1c-1.2 0-2.3.9-2.3 2.4 0 1.4 1 2.4 2.3 2.4.8 0 1.4-.3 1.4-.6 0-.1 0-.3-.1-.3-.4.2-.7.3-1.2.3-.9 0-1.5-.5-1.6-1.5h2.6c.3 0 .5-.1.6-.4.1-.2.1-.4.1-.7.1-.9-.7-1.6-1.8-1.6m-4.2 4.1h-2c.3-1.1.5-2.4.6-3.4h1.4v3.4zm.8-4H1.1c-.1 1.4-.3 2.8-.7 4H0V22h.8v-1h3v1h.8v-1.7H4v-4zm8.4 4h-.6c-.4 0-.5-.1-.5-.7v-.7h1c.7 0 1.1.2 1.1.7 0 .4-.3.7-1 .7m-1.2-3.4h1c.7 0 .9.3.9.7 0 .4-.3.7-.9.7h-1v-1.4zm2.1 1.6c.4-.2.6-.5.6-1 0-.7-.5-1.3-1.6-1.3h-1.9v3.4c0 .9.4 1.3 1.1 1.3h.8c1.1 0 1.7-.5 1.7-1.3.1-.6-.2-.9-.7-1.1"/><path class="st1" d="M38.9 7.3c0 .9-.5 1.8-1.2 2.2-.5.4-1.5.7-2.7.7-1.1 0-2.1-.3-2.7-.7-.7-.5-1.2-1.3-1.2-2.2V5c0-1 .6-1.9 1.4-2.4.6-.3 1.5-.6 2.5-.6s1.9.2 2.5.6c.8.5 1.4 1.3 1.4 2.4v2.3zM38.5.4c-.8-.2-2.1-.4-3.4-.4-1.3 0-2.4.1-3.2.4-1.9.4-3.2 2.1-3.2 4v3.5c0 2.1 1.6 3.9 3.7 4.1.8.2 1.7.3 2.8.3 1.1 0 2.1-.1 2.8-.3 2-.3 3.6-2 3.6-4.1V4.4c-.1-1.9-1.4-3.5-3.1-4M23.6 4.1V12h2.6V.3c-1.5.6-2.6 2.1-2.6 3.8m30.6 3.2c0 .9-.5 1.8-1.2 2.2-.5.4-1.5.7-2.7.7-1.1 0-2.1-.3-2.7-.7-.7-.5-1.2-1.3-1.2-2.2V5c0-1 .6-1.9 1.4-2.4.6-.3 1.5-.6 2.5-.6s1.9.2 2.5.6c.8.5 1.4 1.3 1.4 2.4v2.3zM53.8.4c-.9-.2-2.1-.4-3.5-.4-1.3 0-2.4.1-3.2.4-1.9.4-3.2 2.1-3.2 4v3.5c0 2.1 1.6 3.9 3.7 4.1.8.2 1.7.3 2.8.3 1.1 0 2.1-.1 2.8-.3 2-.3 3.6-2 3.6-4.1V4.4c0-1.9-1.3-3.5-3-4M12.1.3c-1.5 0-2.8.6-3.7 1.6-.5.6-1.7 2.1-2.4 3L0 12h2c.9 0 1.7-.4 2.3-1.1l.1-.2 1.5-1.8h3.7c1.1 0 2-.7 2.4-1.6v-.1c0-.1 0-.1.1-.2H7.5l3.1-3.7c.1-.1.2-.2.3-.4h.1l.1-.1.1-.1.1-.1.1-.1h.1l.1-.1c.2-.1.4-.2.6-.2V12h2.6V.3h-2.7zm5 6.8h1.7c1.2 0 2.2-.8 2.5-1.9h-1.7c-1.2 0-2.2.8-2.5 1.9"/></symbol><symbol id="logo_footer1_gray" viewBox="0 0 57 25"><style>.st0{fill:#a4a4a4}.st1{fill:#c0c0c1}</style><path class="st0" d="M27.8 20.4c-.8 0-1.5-.6-1.5-1.8 0-1.2.7-1.7 1.5-1.7s1.5.6 1.5 1.8c0 1.1-.7 1.7-1.5 1.7m0-4.2c-1.2 0-2.3.9-2.3 2.4s1 2.4 2.3 2.4c1.2 0 2.3-.9 2.3-2.4-.1-1.5-1.1-2.4-2.3-2.4m3.4 4.7h.8v-4h2.3v4h.7v-4.6h-3.8v4.6zm-10.5-1.5c-.1.8-.3 1-.6 1-.2 0-.3 0-.5-.1-.1.1-.1.2-.1.3 0 .2.4.4.8.4.7 0 1.1-.4 1.2-1.5.1-.9.2-1.9.2-2.6h1.9v4h.8v-4.6H21c-.1 1.1-.1 2.3-.3 3.1m-2.2-1.1H16c.1-.9.7-1.4 1.5-1.4.7 0 1.1.4 1.1 1.1-.1 0-.1.2-.1.3m-1.1-2.1c-1.2 0-2.3.9-2.3 2.4 0 1.4 1 2.4 2.3 2.4.8 0 1.4-.3 1.4-.6 0-.1 0-.3-.1-.3-.4.2-.7.3-1.2.3-.9 0-1.5-.5-1.6-1.5h2.6c.3 0 .5-.1.6-.4.1-.2.1-.4.1-.7.1-.9-.7-1.6-1.8-1.6m35.4.1v.6h1.6v4h.8v-4h1.6v-.6h-4zm-6.9 2h-2.5c.1-.9.7-1.4 1.5-1.4.7 0 1.1.4 1.1 1.1 0 0-.1.2-.1.3m-1-2.1c-1.2 0-2.3.9-2.3 2.4 0 1.4 1 2.4 2.3 2.4.8 0 1.4-.3 1.4-.6 0-.1 0-.3-.1-.3-.4.2-.7.3-1.2.3-.9 0-1.5-.5-1.6-1.5H46c.3 0 .5-.1.6-.4.1-.2.1-.4.1-.7 0-.9-.8-1.6-1.8-1.6m-4.6.1l-1.4 2.5-1.4-2.5h-.8l-.6 4.6h.8l.5-3.6 1.2 2.1h.7l1.2-2.1.5 3.6h.8l-.8-4.6h-.7zm10.6 1.9h-2.3v-1.9h-.8v4.6h.8v-2.1h2.3v2.1h.8v-4.6h-.8v1.9zm-42.4.1H5.9c.1-.9.7-1.4 1.5-1.4.7 0 1.1.4 1.1 1.1v.3m-1.1-2.1c-1.2 0-2.3.9-2.3 2.4 0 1.4 1 2.4 2.3 2.4.8 0 1.4-.3 1.4-.6 0-.1 0-.3-.1-.3-.4.2-.7.3-1.2.3-.9 0-1.5-.5-1.6-1.5h2.6c.3 0 .5-.1.6-.4.1-.2.1-.4.1-.7.1-.9-.7-1.6-1.8-1.6m-4.2 4.1h-2c.3-1.1.5-2.4.6-3.4h1.4v3.4zm.8-4H1.1c-.1 1.4-.3 2.8-.7 4H0V22h.8v-1h3v1h.8v-1.7H4v-4zm8.4 4h-.6c-.4 0-.5-.1-.5-.7v-.7h1c.7 0 1.1.2 1.1.7 0 .4-.3.7-1 .7m-1.2-3.4h1c.7 0 .9.3.9.7 0 .4-.3.7-.9.7h-1v-1.4zm2.1 1.6c.4-.2.6-.5.6-1 0-.7-.5-1.3-1.6-1.3h-1.9v3.4c0 .9.4 1.3 1.1 1.3h.8c1.1 0 1.7-.5 1.7-1.3.1-.6-.2-.9-.7-1.1"/><path class="st1" d="M38.9 7.3c0 .9-.5 1.8-1.2 2.2-.5.4-1.5.7-2.7.7-1.1 0-2.1-.3-2.7-.7-.7-.5-1.2-1.3-1.2-2.2V5c0-1 .6-1.9 1.4-2.4.6-.3 1.5-.6 2.5-.6s1.9.2 2.5.6c.8.5 1.4 1.3 1.4 2.4v2.3zM38.5.4c-.8-.2-2.1-.4-3.4-.4-1.3 0-2.4.1-3.2.4-1.9.4-3.2 2.1-3.2 4v3.5c0 2.1 1.6 3.9 3.7 4.1.8.2 1.7.3 2.8.3 1.1 0 2.1-.1 2.8-.3 2-.3 3.6-2 3.6-4.1V4.4c-.1-1.9-1.4-3.5-3.1-4M23.6 4.1V12h2.6V.3c-1.5.6-2.6 2.1-2.6 3.8m30.6 3.2c0 .9-.5 1.8-1.2 2.2-.5.4-1.5.7-2.7.7-1.1 0-2.1-.3-2.7-.7-.7-.5-1.2-1.3-1.2-2.2V5c0-1 .6-1.9 1.4-2.4.6-.3 1.5-.6 2.5-.6s1.9.2 2.5.6c.8.5 1.4 1.3 1.4 2.4v2.3zM53.8.4c-.9-.2-2.1-.4-3.5-.4-1.3 0-2.4.1-3.2.4-1.9.4-3.2 2.1-3.2 4v3.5c0 2.1 1.6 3.9 3.7 4.1.8.2 1.7.3 2.8.3 1.1 0 2.1-.1 2.8-.3 2-.3 3.6-2 3.6-4.1V4.4c0-1.9-1.3-3.5-3-4M12.1.3c-1.5 0-2.8.6-3.7 1.6-.5.6-1.7 2.1-2.4 3L0 12h2c.9 0 1.7-.4 2.3-1.1l.1-.2 1.5-1.8h3.7c1.1 0 2-.7 2.4-1.6v-.1c0-.1 0-.1.1-.2H7.5l3.1-3.7c.1-.1.2-.2.3-.4h.1l.1-.1.1-.1.1-.1.1-.1h.1l.1-.1c.2-.1.4-.2.6-.2V12h2.6V.3h-2.7zm5 6.8h1.7c1.2 0 2.2-.8 2.5-1.9h-1.7c-1.2 0-2.2.8-2.5 1.9"/></symbol><symbol id="logo_footer2" viewBox="0 0 57 25"><style>.st0{fill:#76bc21}.st1{fill:#54565a}</style><path class="st0" d="M38.9 7.3c0 .9-.5 1.8-1.2 2.2-.5.4-1.5.7-2.7.7-1.1 0-2.1-.3-2.7-.7-.7-.5-1.2-1.3-1.2-2.2V5c0-1 .6-1.9 1.4-2.4.6-.3 1.5-.6 2.5-.6s1.9.2 2.5.6c.8.5 1.4 1.3 1.4 2.4v2.3zM38.5.4c-.8-.2-2.1-.4-3.4-.4-1.3 0-2.4.1-3.2.4-1.9.4-3.2 2.1-3.2 4v3.5c0 2.1 1.6 3.9 3.7 4.1.8.2 1.7.3 2.8.3 1.1 0 2.1-.1 2.8-.3 2-.3 3.6-2 3.6-4.1V4.4c-.1-1.9-1.4-3.5-3.1-4M23.6 4.1V12h2.6V.3c-1.5.6-2.6 2.1-2.6 3.8m30.6 3.2c0 .9-.5 1.8-1.2 2.2-.5.4-1.5.7-2.7.7-1.1 0-2.1-.3-2.7-.7-.7-.5-1.2-1.3-1.2-2.2V5c0-1 .6-1.9 1.4-2.4.6-.3 1.5-.6 2.5-.6s1.9.2 2.5.6c.8.5 1.4 1.3 1.4 2.4v2.3zM53.8.4c-.9-.2-2.1-.4-3.5-.4-1.3 0-2.4.1-3.2.4-1.9.4-3.2 2.1-3.2 4v3.5c0 2.1 1.6 3.9 3.7 4.1.8.2 1.7.3 2.8.3 1.1 0 2.1-.1 2.8-.3 2-.3 3.6-2 3.6-4.1V4.4c0-1.9-1.3-3.5-3-4M12.1.3c-1.5 0-2.8.6-3.7 1.6-.5.6-1.7 2.1-2.4 3L0 12h2c.9 0 1.7-.4 2.3-1.1l.1-.2 1.5-1.8h3.7c1.1 0 2-.7 2.4-1.6v-.1c0-.1 0-.1.1-.2H7.5l3.1-3.7c.1-.1.2-.2.3-.4h.1l.1-.1.1-.1.1-.1.1-.1.1-.1.1-.1c.2-.1.4-.2.6-.2V12h2.6V.3h-2.7zm5 6.8h1.7c1.2 0 2.2-.8 2.5-1.9h-1.7c-1.2 0-2.2.8-2.5 1.9"/><path class="st1" d="M51.6 16.3v.8h2.1v5.2h1v-5.2h2.1v-.8h-5.2zm-11.4-.1c-1.1 0-1.9.5-2.2 1.2 0 .1-.1.2-.1.2 0 .1 0 .2.2.3.2.1.4.2.7.2.2-.6.7-1 1.5-1 1 0 1.7.7 1.8 1.9h-2.6c0 .2-.1.4-.1.5 0 .2.1.3.2.3H42c-.3 1.2-1.3 1.9-2.3 1.9-.5 0-1-.1-1.5-.3-.1.1-.1.3-.1.4 0 .3.7.7 1.8.7 1.6 0 3.2-1.2 3.2-3.3 0-1.9-1.2-3-2.9-3m5 4.1c-.1 1-.4 1.2-.8 1.2-.2 0-.4 0-.6-.1-.1.1-.1.3-.1.4 0 .2.5.5 1 .5.9 0 1.4-.5 1.5-1.9.1-1.1.2-2.4.2-3.4h2.5v5.2h1v-6h-4.4c-.1 1.6-.2 3-.3 4.1m-19.1 1.3c-.6 0-1.1-.2-1.5-.6v-2.4c.4-1.1 1.2-1.6 1.9-1.6 1.1 0 1.8.8 1.8 2.1-.1 1.4-1 2.5-2.2 2.5m.6-5.4c-.9 0-1.7.5-2.1 1.2v-1.1h-1v8.4h1v-2.8c.4.4 1 .6 1.7.6 1.6 0 3-1.4 3-3.4-.1-1.8-1.2-2.9-2.6-2.9m8.4.2L32 20.8v-4.5h-1v5.8c.2.2.5.3.7.3.2 0 .2 0 .3-.2l3.1-4.4v4.5h1v-5.8c-.2-.2-.5-.3-.7-.3-.1.1-.2.1-.3.2"/></symbol><symbol id="logo_footer2_gray" viewBox="0 0 57 25"><style>.st0{fill:#c5c5c5}.st1{fill:#a4a4a4}</style><path class="st0" d="M38.9 7.3c0 .9-.5 1.8-1.2 2.2-.5.4-1.5.7-2.7.7-1.1 0-2.1-.3-2.7-.7-.7-.5-1.2-1.3-1.2-2.2V5c0-1 .6-1.9 1.4-2.4.6-.3 1.5-.6 2.5-.6s1.9.2 2.5.6c.8.5 1.4 1.3 1.4 2.4v2.3zM38.5.4c-.8-.2-2.1-.4-3.4-.4-1.3 0-2.4.1-3.2.4-1.9.4-3.2 2.1-3.2 4v3.5c0 2.1 1.6 3.9 3.7 4.1.8.2 1.7.3 2.8.3 1.1 0 2.1-.1 2.8-.3 2-.3 3.6-2 3.6-4.1V4.4c-.1-1.9-1.4-3.5-3.1-4M23.6 4.1V12h2.6V.3c-1.5.6-2.6 2.1-2.6 3.8m30.6 3.2c0 .9-.5 1.8-1.2 2.2-.5.4-1.5.7-2.7.7-1.1 0-2.1-.3-2.7-.7-.7-.5-1.2-1.3-1.2-2.2V5c0-1 .6-1.9 1.4-2.4.6-.3 1.5-.6 2.5-.6s1.9.2 2.5.6c.8.5 1.4 1.3 1.4 2.4v2.3zM53.8.4c-.9-.2-2.1-.4-3.5-.4-1.3 0-2.4.1-3.2.4-1.9.4-3.2 2.1-3.2 4v3.5c0 2.1 1.6 3.9 3.7 4.1.8.2 1.7.3 2.8.3 1.1 0 2.1-.1 2.8-.3 2-.3 3.6-2 3.6-4.1V4.4c0-1.9-1.3-3.5-3-4M12.1.3c-1.5 0-2.8.6-3.7 1.6-.5.6-1.7 2.1-2.4 3L0 12h2c.9 0 1.7-.4 2.3-1.1l.1-.2 1.5-1.8h3.7c1.1 0 2-.7 2.4-1.6v-.1c0-.1 0-.1.1-.2H7.5l3.1-3.7c.1-.1.2-.2.3-.4h.1l.1-.1.1-.1.1-.1.1-.1.1-.1.1-.1c.2-.1.4-.2.6-.2V12h2.6V.3h-2.7zm5 6.8h1.7c1.2 0 2.2-.8 2.5-1.9h-1.7c-1.2 0-2.2.8-2.5 1.9"/><path class="st1" d="M51.6 16.3v.8h2.1v5.2h1v-5.2h2.1v-.8h-5.2zm-11.4-.1c-1.1 0-1.9.5-2.2 1.2 0 .1-.1.2-.1.2 0 .1 0 .2.2.3.2.1.4.2.7.2.2-.6.7-1 1.5-1 1 0 1.7.7 1.8 1.9h-2.6c0 .2-.1.4-.1.5 0 .2.1.3.2.3H42c-.3 1.2-1.3 1.9-2.3 1.9-.5 0-1-.1-1.5-.3-.1.1-.1.3-.1.4 0 .3.7.7 1.8.7 1.6 0 3.2-1.2 3.2-3.3 0-1.9-1.2-3-2.9-3m5 4.1c-.1 1-.4 1.2-.8 1.2-.2 0-.4 0-.6-.1-.1.1-.1.3-.1.4 0 .2.5.5 1 .5.9 0 1.4-.5 1.5-1.9.1-1.1.2-2.4.2-3.4h2.5v5.2h1v-6h-4.4c-.1 1.6-.2 3-.3 4.1m-19.1 1.3c-.6 0-1.1-.2-1.5-.6v-2.4c.4-1.1 1.2-1.6 1.9-1.6 1.1 0 1.8.8 1.8 2.1-.1 1.4-1 2.5-2.2 2.5m.6-5.4c-.9 0-1.7.5-2.1 1.2v-1.1h-1v8.4h1v-2.8c.4.4 1 .6 1.7.6 1.6 0 3-1.4 3-3.4-.1-1.8-1.2-2.9-2.6-2.9m8.4.2L32 20.8v-4.5h-1v5.8c.2.2.5.3.7.3.2 0 .2 0 .3-.2l3.1-4.4v4.5h1v-5.8c-.2-.2-.5-.3-.7-.3-.1.1-.2.1-.3.2"/></symbol><symbol id="logo_footer3" viewBox="0 0 57 25"><style>.st0{fill:#76bc21}.st1{fill:#54565a}</style><path class="st0" d="M38.9 7.3c0 .9-.5 1.8-1.2 2.2-.5.4-1.5.7-2.7.7-1.1 0-2.1-.3-2.7-.7-.7-.5-1.2-1.3-1.2-2.2V5c0-1 .6-1.9 1.4-2.4.6-.3 1.5-.6 2.5-.6s1.9.2 2.5.6c.8.5 1.4 1.3 1.4 2.4v2.3zM38.5.4c-.8-.2-2.1-.4-3.4-.4-1.3 0-2.4.1-3.2.4-1.9.4-3.2 2.1-3.2 4v3.5c0 2.1 1.6 3.9 3.7 4.1.8.2 1.7.3 2.8.3 1.1 0 2.1-.1 2.8-.3 2-.3 3.6-2 3.6-4.1V4.4c-.1-1.9-1.4-3.5-3.1-4M23.6 4.1V12h2.6V.3c-1.5.6-2.6 2.1-2.6 3.8m30.6 3.2c0 .9-.5 1.8-1.2 2.2-.5.4-1.5.7-2.7.7-1.1 0-2.1-.3-2.7-.7-.7-.5-1.2-1.3-1.2-2.2V5c0-1 .6-1.9 1.4-2.4.6-.3 1.5-.6 2.5-.6s1.9.2 2.5.6c.8.5 1.4 1.3 1.4 2.4v2.3zM53.8.4c-.9-.2-2.1-.4-3.5-.4-1.3 0-2.4.1-3.2.4-1.9.4-3.2 2.1-3.2 4v3.5c0 2.1 1.6 3.9 3.7 4.1.8.2 1.7.3 2.8.3 1.1 0 2.1-.1 2.8-.3 2-.3 3.6-2 3.6-4.1V4.4c0-1.9-1.3-3.5-3-4M12.1.3c-1.5 0-2.8.6-3.7 1.6-.5.6-1.7 2.1-2.4 3L0 12h2c.9 0 1.7-.4 2.3-1.1l.1-.2 1.5-1.8h3.7c1.1 0 2-.7 2.4-1.6v-.1c0-.1 0-.1.1-.2H7.5l3.1-3.7c.1-.1.2-.2.3-.4h.1l.1-.1.1-.1.1-.1.1-.1h.1l.1-.1c.2-.1.4-.2.6-.2V12h2.6V.3h-2.7zm5 6.8h1.7c1.2 0 2.2-.8 2.5-1.9h-1.7c-1.2 0-2.2.8-2.5 1.9"/><path class="st1" d="M53.2 16.3v.6h1.4v3.5h.7v-3.5h1.4v-.6h-3.5zm-2.6 3.6c-.4 0-.8-.1-1.1-.4v-1.7c.3-.7.8-1.1 1.3-1.1.7 0 1.2.5 1.2 1.4.1 1.1-.5 1.8-1.4 1.8m.4-3.7c-.6 0-1.2.3-1.4.8v-.7h-.7v5.8h.7v-2c.3.3.7.4 1.2.4 1.1 0 2-1 2-2.3 0-1.2-.8-2-1.8-2m-10.1 3.7v-3.1c.9.1 1.6.6 1.6 1.6-.1 1-.7 1.5-1.6 1.5m-.7 0c-.9-.1-1.5-.7-1.5-1.6 0-.9.6-1.4 1.5-1.5v3.1zm.7-3.7v-1.5h-.7v1.5c-1.3.1-2.2.9-2.2 2.1 0 1.3.9 2 2.2 2.1V22h.7v-1.6c1.3-.1 2.2-.8 2.2-2.1 0-1.2-.9-2-2.2-2.1m5.1 3.7c-.7 0-1.4-.6-1.4-1.6s.6-1.5 1.3-1.5c.7 0 1.4.6 1.4 1.6-.1 1.1-.7 1.5-1.3 1.5m-.1-3.7c-1.1 0-2 .8-2 2.2 0 1.4.9 2.2 2 2.2s2-.8 2-2.2c0-1.4-.9-2.2-2-2.2M27 19.9c-.1 0-.2-.1-.4-.2-.3-.3-.8-.9-1.2-1.5.7-.5 1.5-1.2 1.5-1.6 0-.1-.1-.3-.5-.4-.5.8-1.4 1.6-2.2 2v-2h-.7v4.1h.7v-1.5c.2-.1.4-.2.6-.4.4.7.9 1.3 1.3 1.7.2.2.4.3.6.3.3 0 .5-.2.5-.3v-.2H27zm2.7 0c-.7 0-1.4-.6-1.4-1.6s.6-1.5 1.3-1.5c.7 0 1.4.6 1.4 1.6 0 1.1-.6 1.5-1.3 1.5m0-3.7c-1.1 0-2 .8-2 2.2 0 1.4.9 2.2 2 2.2s2-.8 2-2.2c0-1.4-.9-2.2-2-2.2m6.4.1l-1.3 2.2-1.3-2.2h-.7l-.5 4.1h.7l.4-3.2 1.1 1.9h.6l1.1-1.9.4 3.2h.7l-.5-4.1h-.7z"/></symbol><symbol id="logo_footer3_gray" viewBox="0 0 57 25"><style>.st0{fill:#c5c5c5}.st1{fill:#a4a4a4}</style><path class="st0" d="M38.9 7.3c0 .9-.5 1.8-1.2 2.2-.5.4-1.5.7-2.7.7-1.1 0-2.1-.3-2.7-.7-.7-.5-1.2-1.3-1.2-2.2V5c0-1 .6-1.9 1.4-2.4.6-.3 1.5-.6 2.5-.6s1.9.2 2.5.6c.8.5 1.4 1.3 1.4 2.4v2.3zM38.5.4c-.8-.2-2.1-.4-3.4-.4-1.3 0-2.4.1-3.2.4-1.9.4-3.2 2.1-3.2 4v3.5c0 2.1 1.6 3.9 3.7 4.1.8.2 1.7.3 2.8.3 1.1 0 2.1-.1 2.8-.3 2-.3 3.6-2 3.6-4.1V4.4c-.1-1.9-1.4-3.5-3.1-4M23.6 4.1V12h2.6V.3c-1.5.6-2.6 2.1-2.6 3.8m30.6 3.2c0 .9-.5 1.8-1.2 2.2-.5.4-1.5.7-2.7.7-1.1 0-2.1-.3-2.7-.7-.7-.5-1.2-1.3-1.2-2.2V5c0-1 .6-1.9 1.4-2.4.6-.3 1.5-.6 2.5-.6s1.9.2 2.5.6c.8.5 1.4 1.3 1.4 2.4v2.3zM53.8.4c-.9-.2-2.1-.4-3.5-.4-1.3 0-2.4.1-3.2.4-1.9.4-3.2 2.1-3.2 4v3.5c0 2.1 1.6 3.9 3.7 4.1.8.2 1.7.3 2.8.3 1.1 0 2.1-.1 2.8-.3 2-.3 3.6-2 3.6-4.1V4.4c0-1.9-1.3-3.5-3-4M12.1.3c-1.5 0-2.8.6-3.7 1.6-.5.6-1.7 2.1-2.4 3L0 12h2c.9 0 1.7-.4 2.3-1.1l.1-.2 1.5-1.8h3.7c1.1 0 2-.7 2.4-1.6v-.1c0-.1 0-.1.1-.2H7.5l3.1-3.7c.1-.1.2-.2.3-.4h.1l.1-.1.1-.1.1-.1.1-.1.1-.1.1-.1c.2-.1.4-.2.6-.2V12h2.6V.3h-2.7zm5 6.8h1.7c1.2 0 2.2-.8 2.5-1.9h-1.7c-1.2 0-2.2.8-2.5 1.9"/><path class="st1" d="M51.6 16.3v.8h2.1v5.2h1v-5.2h2.1v-.8h-5.2zm-11.4-.1c-1.1 0-1.9.5-2.2 1.2 0 .1-.1.2-.1.2 0 .1 0 .2.2.3.2.1.4.2.7.2.2-.6.7-1 1.5-1 1 0 1.7.7 1.8 1.9h-2.6c0 .2-.1.4-.1.5 0 .2.1.3.2.3H42c-.3 1.2-1.3 1.9-2.3 1.9-.5 0-1-.1-1.5-.3-.1.1-.1.3-.1.4 0 .3.7.7 1.8.7 1.6 0 3.2-1.2 3.2-3.3 0-1.9-1.2-3-2.9-3m5 4.1c-.1 1-.4 1.2-.8 1.2-.2 0-.4 0-.6-.1-.1.1-.1.3-.1.4 0 .2.5.5 1 .5.9 0 1.4-.5 1.5-1.9.1-1.1.2-2.4.2-3.4h2.5v5.2h1v-6h-4.4c-.1 1.6-.2 3-.3 4.1m-19.1 1.3c-.6 0-1.1-.2-1.5-.6v-2.4c.4-1.1 1.2-1.6 1.9-1.6 1.1 0 1.8.8 1.8 2.1-.1 1.4-1 2.5-2.2 2.5m.6-5.4c-.9 0-1.7.5-2.1 1.2v-1.1h-1v8.4h1v-2.8c.4.4 1 .6 1.7.6 1.6 0 3-1.4 3-3.4-.1-1.8-1.2-2.9-2.6-2.9m8.4.2L32 20.8v-4.5h-1v5.8c.2.2.5.3.7.3.2 0 .2 0 .3-.2l3.1-4.4v4.5h1v-5.8c-.2-.2-.5-.3-.7-.3-.1.1-.2.1-.3.2"/></symbol><symbol id="mail" viewBox="0 0 62.7 41.8"><style>.st0{fill:#0d0e0f}</style><path class="st0" d="M0 0v41.8h62.7V0H0zm31.1 29.7L3.4 2h55.4L31.1 29.7zm-11-8.2L2 38.5V3.4l18.1 18.1zm1.4 1.4l9.6 9.6 9.9-9.9 18.2 17.2H3.5l18-16.9zm20.9-1.7L60.7 2.9v35.6L42.4 21.2z"/></symbol><symbol id="not_found_ico" viewBox="0 0 294 106"><path d="M60.433 69.617h14.203v10.617H60.433V104H47.355V80.234H.737V72.57L46.581 1.625h13.852v67.992zm-44.93 0h31.852V19.414l-1.547 2.813-30.305 47.39zm163.87-9.281c0 15.234-2.601 26.555-7.804 33.96-5.203 7.407-13.336 11.11-24.399 11.11-10.922 0-19.008-3.609-24.258-10.828-5.25-7.266-7.968-18.094-8.156-32.484V44.727c0-15.047 2.602-26.227 7.805-33.54C127.764 3.875 135.92.22 147.03.22c11.015 0 19.125 3.539 24.328 10.617 5.203 7.031 7.875 17.906 8.015 32.625v16.875zm-13.007-17.79c0-11.015-1.547-19.03-4.641-24.046-3.094-5.063-7.992-7.594-14.695-7.594-6.657 0-11.508 2.508-14.555 7.524-3.047 5.015-4.617 12.726-4.711 23.133v20.812c0 11.063 1.594 19.242 4.781 24.54 3.235 5.25 8.11 7.874 14.625 7.874 6.422 0 11.18-2.484 14.274-7.453 3.14-4.969 4.781-12.797 4.922-23.484V42.547zm113.386 27.071h14.203v10.617h-14.203V104h-13.079V80.234h-46.617V72.57L265.9 1.625h13.852v67.992zm-44.93 0h31.851V19.414l-1.546 2.813-30.305 47.39z" fill="url(#paint0_linear)"/><defs><linearGradient id="paint0_linear" x1="-3" y1="54.5" x2="326" y2="54.5" gradientUnits="userSpaceOnUse"><stop stop-color="#FFB547"/><stop offset="1" stop-color="red"/></linearGradient></defs></symbol><symbol id="phone" viewBox="0 0 57 57"><style>.st0{fill:#0d0e0f}</style><path class="st0" d="M56.5 45L45 37.3c-1.5-1-3.4-.6-4.5.7l-3.4 4.3c-.4.6-1.2.7-1.8.4l-.6-.4c-2.1-1.2-4.8-2.6-10.1-7.9s-6.8-8-7.9-10.1l-.4-.6c-.4-.6-.2-1.4.4-1.8l4.3-3.4c1.4-1.1 1.7-3 .7-4.5L14 2.5c-1-1.5-3-1.9-4.5-1L4.7 4.4c-1.5.9-2.6 2.3-3.1 4-1.7 6.3-.4 17.3 15.7 33.4C30 54.6 39.6 58 46.1 58c1.5 0 3-.2 4.5-.6 1.7-.5 3.1-1.6 4-3.1l2.9-4.8c.9-1.5.5-3.5-1-4.5zm-.6 3.5L53 53.3c-.6 1.1-1.7 1.9-2.9 2.2-5.8 1.6-16.1.3-31.5-15.2S1.8 14.8 3.4 8.9C3.8 7.7 4.6 6.6 5.7 6l4.8-2.9c.7-.4 1.5-.2 2 .4l4.2 6.3 3.5 5.3c.4.6.3 1.5-.3 2l-4.3 3.4c-1.3 1-1.7 2.8-.9 4.3l.3.6c1.2 2.2 2.7 5 8.2 10.5 5.5 5.5 8.3 7 10.5 8.2l.6.3c1.4.8 3.3.4 4.3-.9l3.4-4.3c.5-.6 1.3-.7 2-.3l11.5 7.7c.6.4.8 1.3.4 1.9zM33.3 10.5c8.9 0 16.1 7.2 16.1 16.1 0 .5.4.9.9.9s.9-.4.9-.9c0-10-8.1-18-18-18-.5 0-.9.4-.9.9s.5 1 1 1z" transform="translate(-1 -1)"/><path class="st0" d="M33.3 16.2c5.8 0 10.4 4.7 10.4 10.4 0 .5.4.9.9.9s.9-.4.9-.9c0-6.8-5.5-12.3-12.3-12.3-.5 0-.9.4-.9.9.1.6.5 1 1 1z" transform="translate(-1 -1)"/><path class="st0" d="M33.3 21.9c2.6 0 4.7 2.1 4.7 4.7 0 .5.4.9.9.9s.9-.4.9-.9c0-3.7-3-6.6-6.6-6.6-.5 0-.9.4-.9.9s.5 1 1 1z" transform="translate(-1 -1)"/></symbol><symbol id="prev_page_arrow" viewBox="0 0 47 52"><path d="M25.07 51L1 25.138m0 0L25.07 1M1 25.138h45.5" stroke="#000"/></symbol><symbol id="room" viewBox="0 0 63.2 57.6"><style>.st0{fill:#0d0e0f}</style><path class="st0" d="M63.2 14c0-.1-1.9-13.9-14-13.9-.7-.1-6.5-.5-10.8 3.3C35.5 6 34 10 34 15.1v14.4H10.7V18.1h8.7L16 .3H3L0 18.1h8.7v11.4H.2v28.2h10.3v-14h22.3v14h10.3V44.6H52v13.1h11.2V14zM4.7 2.3h9.7L17 16.1H2.4L4.7 2.3zm36.5 53.3h-6.3v-14H8.5v14H2.2V31.5h39v24.1zm20 0H54v-13H43.2V29.5H36V15.1c0-4.6 1.3-8 3.7-10.2C43.5 1.5 49 2 49 2h.1c4.3 0 7.7 2 9.9 6 1.6 2.8 2.1 5.7 2.1 6.2v41.4z"/></symbol><symbol id="slide_arrow_left" viewBox="0 0 13 22"><path d="M11.629 21L2 10.655 11.629 1" stroke="#000" stroke-width="2"/></symbol><symbol id="slide_arrow_right" viewBox="0 0 13 22"><path d="M1.629 1l9.628 10.345L1.629 21" stroke="#000" stroke-width="2"/></symbol><symbol id="social_fb" viewBox="0 0 24 24"><path fill-rule="evenodd" clip-rule="evenodd" d="M10.306 18.528h2.698v-6.529h1.8l.238-2.25h-2.038l.002-1.126c0-.586.056-.901.898-.901h1.125v-2.25h-1.8c-2.162 0-2.923 1.092-2.923 2.927v1.35H8.958V12h1.348v6.529zM12 24C5.373 24 0 18.627 0 12 0 5.372 5.373 0 12 0s12 5.372 12 12c0 6.627-5.373 12-12 12z"/></symbol><symbol id="social_inst" viewBox="0 0 24 24"><path d="M11.902 14.244a2.146 2.146 0 1 0 0-4.293 2.146 2.146 0 0 0 0 4.293z"/><path d="M14.585 6.83H9.219c-.78 0-1.463.243-1.902.682-.44.44-.683 1.122-.683 1.902v5.366c0 .78.244 1.464.731 1.952.488.439 1.122.683 1.903.683h5.317c.78 0 1.463-.244 1.902-.683.488-.44.732-1.122.732-1.903V9.463c0-.78-.244-1.414-.683-1.902-.488-.488-1.122-.732-1.951-.732zm-2.683 8.585a3.32 3.32 0 0 1-3.317-3.318 3.32 3.32 0 0 1 3.317-3.317c1.805 0 3.366 1.464 3.366 3.317 0 1.854-1.512 3.318-3.366 3.318zm3.464-6a.77.77 0 0 1-.781-.781.77.77 0 0 1 .78-.78.77.77 0 0 1 .781.78.77.77 0 0 1-.78.78z"/><path d="M12 0C5.366 0 0 5.366 0 12s5.366 12 12 12 12-5.366 12-12c.049-6.634-5.366-12-12-12zm6.39 14.83c0 1.121-.39 2.097-1.073 2.78-.683.683-1.659 1.024-2.732 1.024H9.268c-1.073 0-2.048-.341-2.731-1.024-.732-.683-1.074-1.659-1.074-2.78V9.462c0-2.243 1.513-3.804 3.805-3.804h5.366c1.122 0 2.049.39 2.732 1.073.683.683 1.024 1.61 1.024 2.731v5.366z"/></symbol><symbol id="social_vk" viewBox="0 0 24 24"><path fill-rule="evenodd" clip-rule="evenodd" d="M24 12c0 6.627-5.373 12-12 12S0 18.627 0 12 5.373 0 12 0s12 5.373 12 12zm-11.511 5.263h-.942s-2.078.125-3.908-1.78C5.643 13.405 3.88 9.281 3.88 9.281s-.101-.27.009-.401c.124-.147.462-.156.462-.156l2.251-.015s.213.035.365.147c.125.092.195.264.195.264s.364.92.846 1.753c.94 1.625 1.378 1.98 1.698 1.806.465-.254.325-2.297.325-2.297s.009-.742-.234-1.072c-.188-.257-.543-.331-.7-.352-.126-.017.082-.311.352-.443.405-.199 1.12-.21 1.966-.201.658.006.848.047 1.106.11.597.144.578.606.538 1.604-.012.298-.026.644-.026 1.043 0 .09-.002.186-.005.284-.014.511-.03 1.096.306 1.313.173.112.595.017 1.65-1.774.5-.85.875-1.848.875-1.848s.082-.178.209-.254c.13-.078.306-.054.306-.054l2.369-.015s.712-.085.827.237c.121.337-.266 1.124-1.234 2.415-.92 1.225-1.366 1.675-1.324 2.074.03.29.321.554.878 1.07 1.166 1.083 1.476 1.652 1.55 1.786.006.012.01.02.014.025.522.865-.579.933-.579.933l-2.104.03s-.452.09-1.047-.32c-.312-.213-.616-.562-.906-.895-.443-.508-.852-.977-1.202-.866-.587.186-.568 1.45-.568 1.45s.004.27-.13.413c-.145.157-.43.188-.43.188z"/></symbol><symbol id="social_yt" viewBox="0 0 24 24"><path fill-rule="evenodd" clip-rule="evenodd" d="M24 12c0 6.627-5.373 12-12 12S0 18.627 0 12 5.373 0 12 0s12 5.373 12 12zm-6.65-2.9c.05.05.05.1.05.15.1.5.2 1.55.2 2.75 0 .98-.1 1.86-.164 2.422-.014.126-.027.236-.036.328-.05.05-.05.1-.05.15v.05c-.15.45-.55.75-1.05.75h.1s-2 .3-4.6.3c-2.65 0-4.6-.3-4.6-.3h.1c-.5 0-.9-.3-1.05-.75v-.05c-.05-.05-.05-.1-.05-.15l-.036-.328A21.026 21.026 0 0 1 6 12c0-.98.1-1.86.164-2.422.014-.126.027-.236.036-.328.05-.05.05-.1.05-.15v-.05c.15-.45.55-.75 1.05-.75h-.1s2-.3 4.6-.3c2.65 0 4.6.3 4.6.3h-.1c.5 0 .9.3 1.05.75v.05zm-6.2 4.85l2.35-1.7c.1-.05.15-.15.1-.25 0-.1-.05-.2-.1-.25l-2.35-1.7c-.1-.05-.2-.05-.3 0-.1.05-.15.15-.15.25v3.4c0 .1.05.2.15.25.05.05.1.05.15.05.05 0 .1 0 .15-.05z"/></symbol><symbol id="websecret" viewBox="0 0 49 25"><style>.st0{fill:#c2c2c2}</style><path class="st0" d="M23 16h-3v-1.9h.8v1.1h2c.3 0 .4-.3.4-.5v-1.6c0-.3 0-.5-.4-.5H21c-.6 0-.9-.4-.9-1V10c0-.8.4-1 1.1-1H24v1.8h-.8V9.7h-1.8c-.4 0-.4.2-.4.5v1.5c0 .2 0 .4.3.4h1.8c.6 0 .9.2.9.9v2.2c0 .6-.5.8-1 .8zm5.3-4h-2.1V9.7h2.2v1.1h.8V9h-4.4v.7h.6v5.6h-.6v.7h4.4v-1.9h-.8v1.1h-2.2v-2.5h2.1V12zm2.5 4h3v-1.9H33v1.1h-1.9c-.3 0-.4-.2-.4-.4v-4.7c0-.3.1-.4.4-.4H33v1.1h.8V9H31c-.8 0-1 .5-1 1.1V15c-.1.5.1 1 .8 1zm5-3.3h1.9c.3 0 .4.2.4.5v2.1h-.6v.7h2.1v-.7h-.7v-2.2c0-.6-.4-.7-.6-.7.1-.1.5-.2.5-.7V9.9c0-.4-.2-.9-.9-.9h-3.5v.7h.6v5.6h-.6v.7h2v-.7h-.6v-2.6zm0-.7V9.7h1.9c.3 0 .3.2.3.5v1.4c0 .2-.1.5-.4.5h-1.8zm7.5 0h-2.1V9.7h2.2v1.1h.8V9h-4.4v.7h.6v5.6h-.6v.7h4.4v-1.9h-.8v1.1h-2.2v-2.5h2.1V12zm4.9-.9h.8V9h-4.5v2.1h.8V9.7h1.1v5.6h-.8v.7H48v-.7h-.8V9.7h1.1l-.1 1.4zm-32.4.1v-2c0-.4-.1-.6-.3-.5l-1.6.2V12h1.5c.3-.2.4-.5.4-.8zm-.3 1.5h-1.6v3.4l1.5.1c.4 0 .4-.2.4-.6v-2.2c.1-.4 0-.7-.3-.7zm3-12.7v25L0 19.6V5.9L18.5 0zM7.9 8.6l-1.8.2v.8h.5l-.8 4.9L4.9 9l-.9.1-.9 5.2-.7-4.4h.5v-.7L1 9.4v.6h.6l1 5.7.8.1 1-5.4.9 5.6.8.1 1.1-6.7.6-.1.1-.7zm4.3-.6l-3.9.5v.8l.5-.1v6.3h-.5v.8l3.8.4v-2.3h-.7v1.4l-1.9-.2v-2.9h1.9v-.9H9.5V9.2l2-.2v1.3h.7V8zm4.4 5.4c0-.8-.3-1.1-.6-1.2v-.1c.3-.1.5-.5.5-1.1V9c0-1.1-.3-1.6-1-1.5l-2.8.5v.9l.5-.1V16h-.5v.9l2.8.3c1 .1 1.1-.4 1.1-1.7v-2.1z"/></symbol></svg>